<svg width="14" height="16" viewBox="0 0 14 16" fill="none" xmlns="http://www.w3.org/2000/svg">
<path d="M3.11099 3.11115V0.777786C3.11099 0.348231 3.45922 0 3.88878 0H13.2222C13.6518 0 14 0.348231 14 0.777786V11.6668C14 12.0964 13.6518 12.4446 13.2222 12.4446H10.8889V14.7772C10.8889 15.2072 10.5389 15.5557 10.1058 15.5557H0.782966C0.350463 15.5557 0 15.2099 0 14.7772L0.00202221 3.88961C0.00209999 3.45968 0.352057 3.11115 0.785113 3.11115H3.11099ZM1.55746 4.66672L1.55572 14.0002H9.33328V4.66672H1.55746ZM4.66656 3.11115H10.8889V10.889H12.4444V1.55557H4.66656V3.11115Z" fill="#3B1550"/>
</svg>
