<svg width="24" height="24" viewBox="0 0 24 24" fill="none" xmlns="http://www.w3.org/2000/svg">
<path d="M15.5 7.8H19V9.2H17.6V18.3C17.6 18.6866 17.2866 19 16.9 19H7.1C6.7134 19 6.4 18.6866 6.4 18.3V9.2H5V7.8H8.5V5.7C8.5 5.3134 8.8134 5 9.2 5H14.8C15.1866 5 15.5 5.3134 15.5 5.7V7.8ZM16.2 9.2H7.8V17.6H16.2V9.2ZM12.9899 13.3998L14.2274 14.6372L13.2375 15.6272L12 14.3897L10.7625 15.6272L9.77261 14.6372L11.0101 13.3998L9.77261 12.1624L10.7625 11.1725L12 12.4098L13.2375 11.1725L14.2274 12.1624L12.9899 13.3998ZM9.9 6.4V7.8H14.1V6.4H9.9Z" fill="black"/>
</svg>
