<svg width="42" height="42" viewBox="0 0 42 42" fill="none" xmlns="http://www.w3.org/2000/svg">
<path d="M3.5 4.78524C3.5 4.04193 4.05431 3.5 4.66417 3.5H23.7929L32.4995 12.2071L32.5 37.1865C32.5 37.9557 31.9405 38.5 31.3443 38.5H4.65567C4.05574 38.5 3.5 37.9443 3.5 37.2148V4.78524Z" fill="white" stroke="#333333"/>
<path d="M23 13V3L33 13H23Z" fill="#333333"/>
<rect width="25" height="12" transform="translate(14 20)" fill="#333333"/>
<path d="M19.0991 30H17.3965L17.4072 28.7432H19.0991C19.5216 28.7432 19.8779 28.6483 20.168 28.4585C20.458 28.2651 20.6764 27.984 20.8232 27.6152C20.9736 27.2464 21.0488 26.8006 21.0488 26.2778V25.8965C21.0488 25.4954 21.0059 25.1427 20.9199 24.8384C20.8376 24.534 20.714 24.278 20.5493 24.0703C20.3846 23.8626 20.1823 23.7069 19.9424 23.603C19.7025 23.4956 19.4268 23.4419 19.1152 23.4419H17.3643V22.1797H19.1152C19.638 22.1797 20.116 22.2692 20.5493 22.4482C20.9862 22.6237 21.3639 22.8761 21.6826 23.2056C22.0013 23.535 22.2466 23.9289 22.4185 24.3872C22.5939 24.842 22.6816 25.3486 22.6816 25.9072V26.2778C22.6816 26.8328 22.5939 27.3395 22.4185 27.7979C22.2466 28.2562 22.0013 28.6501 21.6826 28.9795C21.3675 29.3053 20.9897 29.5578 20.5493 29.7368C20.1125 29.9123 19.6291 30 19.0991 30ZM18.3096 22.1797V30H16.6982V22.1797H18.3096Z" fill="white"/>
<path d="M30.2764 25.9072V26.2778C30.2764 26.8722 30.1958 27.4058 30.0347 27.8784C29.8735 28.3511 29.6462 28.7539 29.3525 29.0869C29.0589 29.4163 28.708 29.6688 28.2998 29.8442C27.8952 30.0197 27.4458 30.1074 26.9517 30.1074C26.4611 30.1074 26.0117 30.0197 25.6035 29.8442C25.1989 29.6688 24.848 29.4163 24.5508 29.0869C24.2536 28.7539 24.0226 28.3511 23.8579 27.8784C23.6968 27.4058 23.6162 26.8722 23.6162 26.2778V25.9072C23.6162 25.3092 23.6968 24.7757 23.8579 24.3066C24.019 23.834 24.2464 23.4312 24.54 23.0981C24.8372 22.7651 25.1882 22.5109 25.5928 22.3354C26.001 22.16 26.4504 22.0723 26.9409 22.0723C27.4351 22.0723 27.8844 22.16 28.2891 22.3354C28.6973 22.5109 29.0482 22.7651 29.3418 23.0981C29.639 23.4312 29.8682 23.834 30.0293 24.3066C30.194 24.7757 30.2764 25.3092 30.2764 25.9072ZM28.6489 26.2778V25.8965C28.6489 25.4811 28.6113 25.1159 28.5361 24.8008C28.4609 24.4857 28.3499 24.2207 28.2031 24.0059C28.0563 23.791 27.8773 23.6299 27.666 23.5225C27.4548 23.4115 27.2131 23.356 26.9409 23.356C26.6688 23.356 26.4271 23.4115 26.2158 23.5225C26.0081 23.6299 25.8309 23.791 25.6841 24.0059C25.5409 24.2207 25.4316 24.4857 25.3564 24.8008C25.2812 25.1159 25.2437 25.4811 25.2437 25.8965V26.2778C25.2437 26.6896 25.2812 27.0549 25.3564 27.3735C25.4316 27.6886 25.5426 27.9554 25.6895 28.1738C25.8363 28.3887 26.0153 28.5516 26.2266 28.6626C26.4378 28.7736 26.6795 28.8291 26.9517 28.8291C27.2238 28.8291 27.4655 28.7736 27.6768 28.6626C27.888 28.5516 28.0653 28.3887 28.2085 28.1738C28.3517 27.9554 28.4609 27.6886 28.5361 27.3735C28.6113 27.0549 28.6489 26.6896 28.6489 26.2778Z" fill="white"/>
<path d="M35.9697 27.4058H37.5757C37.5435 27.9321 37.3984 28.3994 37.1406 28.8076C36.8864 29.2158 36.5301 29.5345 36.0718 29.7637C35.617 29.9928 35.0692 30.1074 34.4282 30.1074C33.9269 30.1074 33.4775 30.0215 33.0801 29.8496C32.6826 29.6742 32.3424 29.4235 32.0596 29.0977C31.7803 28.7718 31.5672 28.3779 31.4204 27.916C31.2736 27.4541 31.2002 26.9367 31.2002 26.3638V25.8213C31.2002 25.2484 31.2754 24.731 31.4258 24.269C31.5798 23.8035 31.7982 23.4079 32.0811 23.082C32.3675 22.7562 32.7095 22.5055 33.1069 22.3301C33.5044 22.1546 33.9484 22.0669 34.439 22.0669C35.0907 22.0669 35.6403 22.1851 36.0879 22.4214C36.5391 22.6577 36.8882 22.9836 37.1353 23.3989C37.3859 23.8143 37.5363 24.2869 37.5864 24.8169H35.9751C35.9572 24.5018 35.8945 24.235 35.7871 24.0166C35.6797 23.7946 35.5168 23.6281 35.2983 23.5171C35.0835 23.4025 34.797 23.3452 34.439 23.3452C34.1704 23.3452 33.9359 23.3953 33.7354 23.4956C33.5348 23.5959 33.3665 23.748 33.2305 23.9521C33.0944 24.1562 32.9923 24.4141 32.9243 24.7256C32.8599 25.0335 32.8276 25.3952 32.8276 25.8105V26.3638C32.8276 26.7684 32.8581 27.1247 32.9189 27.4326C32.9798 27.737 33.0729 27.9948 33.1982 28.2061C33.3271 28.4137 33.4919 28.5713 33.6924 28.6787C33.8965 28.7826 34.1418 28.8345 34.4282 28.8345C34.7648 28.8345 35.0423 28.7808 35.2607 28.6733C35.4792 28.5659 35.6457 28.4066 35.7603 28.1953C35.8784 27.984 35.9482 27.7209 35.9697 27.4058Z" fill="white"/>
</svg>
