<svg width="20" height="22" viewBox="0 0 20 22" fill="none" xmlns="http://www.w3.org/2000/svg">
<path d="M17 10C17 9.1825 17 8.4306 16.8478 8.06306C16.6955 7.69552 16.4065 7.40649 15.8284 6.82843L11.0919 2.09188C10.593 1.593 10.3436 1.34355 10.0345 1.19575C9.9702 1.165 9.9044 1.13772 9.8372 1.11401C9.5141 1 9.1614 1 8.4558 1C5.21082 1 3.58831 1 2.48933 1.88607C2.26731 2.06508 2.06508 2.26731 1.88607 2.48933C1 3.58831 1 5.21082 1 8.45584V13C1 16.7712 1 18.6569 2.17157 19.8284C3.34315 21 5.22876 21 9 21H17M10 1.5V2C10 4.82843 10 6.24264 10.8787 7.12132C11.7574 8 13.1716 8 16 8H16.5M19 13H17C16.4477 13 16 13.4477 16 14V15.5M16 15.5V18M16 15.5H18.5M5 18V16M5 16V13H6.5C7.32843 13 8 13.6716 8 14.5C8 15.3284 7.32843 16 6.5 16H5ZM10.5 13H11.7857C12.7325 13 13.5 13.7462 13.5 14.6667V16.3333C13.5 17.2538 12.7325 18 11.7857 18H10.5V13Z" stroke="black" stroke-width="1.5" stroke-linecap="round" stroke-linejoin="round"/>
</svg>
