<svg width="261" height="148" viewBox="0 0 261 148" fill="none" xmlns="http://www.w3.org/2000/svg">
<path d="M218.833 140.265C210.521 132.313 209.445 118.95 210.623 107.146C210.821 105.174 210.779 103.075 211.716 101.419C212.653 99.7627 214.635 98.7591 216.112 99.7416C217.314 100.556 217.77 102.317 218.383 103.798C219.206 105.788 220.493 107.466 222.094 108.641C223.14 109.399 224.461 109.925 225.59 109.343C227.134 108.542 227.47 106.205 227.596 104.24C227.836 100.577 228.073 96.9109 228.305 93.2427C228.344 91.2671 228.657 89.312 229.23 87.4527C229.89 85.642 231.182 84.0208 232.833 83.6559C234.485 83.2909 236.437 84.5542 236.629 86.5123C236.637 87.3333 236.597 88.154 236.509 88.9687C236.475 89.3759 236.543 89.786 236.705 90.1487C236.868 90.5114 237.117 90.811 237.422 91.011C238.083 91.3057 238.804 90.8145 239.356 90.3091C241.254 88.4984 242.63 86.0561 243.921 83.6208C245.212 81.1855 246.48 78.7081 248.227 76.6728C249.975 74.6375 252.306 73.1637 254.756 73.2338C257.207 73.304 259.687 75.3042 260.108 78.1466C260.528 80.989 258.936 83.6559 257.255 85.7473C254.75 88.8368 251.877 91.4889 248.726 93.6217C248.122 93.9363 247.619 94.4672 247.29 95.1377C246.828 96.415 247.813 97.8186 248.9 98.359C250.137 98.9696 251.531 98.9486 252.846 99.2574C254.161 99.5662 255.555 100.38 255.957 101.875C256.51 103.981 254.906 105.918 253.381 107.16C250.306 109.647 246.892 111.506 243.284 112.655C241.993 113.062 240.642 113.399 239.56 114.318C238.479 115.238 237.759 116.943 238.257 118.389C238.756 119.835 240.305 120.424 241.639 120.27C242.972 120.115 244.203 119.407 245.495 118.986C247.897 118.192 250.9 118.67 252.257 121.147C252.659 121.992 252.885 122.935 252.917 123.9C252.949 124.866 252.787 125.827 252.444 126.706C251.745 128.453 250.752 130.019 249.525 131.309C245.436 136.107 240.335 139.555 234.737 141.303C229.152 142.953 224.076 143.058 218.833 140.265Z" fill="#008069" fill-opacity="0.3"/>
<path d="M218.105 149.033C218.969 143.589 220.282 138.256 222.027 133.108C224.184 126.821 226.653 120.686 229.421 114.735L231.589 110.047C232.298 108.503 233.001 106.973 233.77 105.527C235.243 102.756 236.847 100.082 238.574 97.5192C240.214 95.0558 241.854 92.7819 243.379 90.6764C244.905 88.571 246.382 86.641 247.806 84.9426C250.021 82.2574 252.413 79.7794 254.959 77.5313C255.86 76.7313 256.581 76.1277 257.067 75.7487L257.626 75.2995C257.69 75.2485 257.756 75.2016 257.824 75.1592C257.824 75.1592 257.764 75.2223 257.644 75.3276L257.097 75.7978C256.617 76.2049 255.896 76.8084 255.019 77.6226C252.502 79.9005 250.135 82.3967 247.938 85.0899C246.539 86.7883 245.073 88.7254 243.536 90.8378C241.998 92.9503 240.376 95.2242 238.731 97.6876C237.004 100.246 235.4 102.915 233.926 105.681C233.163 107.12 232.466 108.643 231.757 110.187L229.607 114.882C226.862 120.825 224.403 126.943 222.244 133.207C220.496 138.336 219.169 143.646 218.28 149.068" fill="#008069" fill-opacity="0.6"/>
<path d="M233.818 105.491C233.761 105.21 233.729 104.923 233.722 104.635C233.674 104.087 233.626 103.28 233.578 102.291C233.475 100.311 233.415 97.5743 233.355 94.5705C233.295 91.5668 233.199 88.8156 233.061 86.8505C233.001 85.861 232.935 85.0679 232.887 84.5134C232.852 84.2299 232.836 83.9437 232.839 83.6572C232.913 83.9313 232.963 84.2135 232.989 84.4994C233.067 85.0468 233.157 85.8469 233.241 86.8295C233.427 88.8086 233.553 91.5457 233.614 94.5495C233.674 97.5533 233.716 100.255 233.752 102.27C233.782 103.217 233.8 104.01 233.818 104.614C233.842 104.905 233.842 105.199 233.818 105.491Z" fill="#008069" fill-opacity="0.6"/>
<path d="M256.059 102.879H255.83H255.176C254.611 102.879 253.794 102.879 252.773 102.914C250.749 102.963 247.968 103.145 244.875 103.517C241.782 103.889 239.031 104.366 237.037 104.781C236.04 104.984 235.235 105.167 234.677 105.293L234.04 105.44C233.89 105.44 233.812 105.482 233.812 105.44C233.879 105.398 233.952 105.37 234.028 105.356L234.659 105.152C235.205 104.991 236.01 104.774 237.007 104.549C238.995 104.079 241.77 103.566 244.851 103.187C247.932 102.808 250.737 102.668 252.773 102.675C253.788 102.675 254.575 102.675 255.176 102.738L255.824 102.787C255.906 102.803 255.985 102.834 256.059 102.879Z" fill="#008069" fill-opacity="0.6"/>
<path d="M222.303 132.657C222.256 132.551 222.215 132.441 222.183 132.327C222.099 132.082 222.002 131.766 221.876 131.38C221.612 130.552 221.276 129.338 220.831 127.871C219.984 124.874 218.921 120.691 217.792 116.052C216.663 111.413 215.636 107.23 214.831 104.219C214.429 102.746 214.104 101.538 213.864 100.654C213.756 100.261 213.672 99.9524 213.606 99.6857C213.569 99.5748 213.543 99.4595 213.528 99.3418C213.581 99.4427 213.624 99.5512 213.654 99.6646C213.732 99.9173 213.834 100.233 213.96 100.619C214.224 101.447 214.561 102.654 214.999 104.128C215.852 107.125 216.915 111.308 218.038 115.947C219.162 120.586 220.177 124.783 221.005 127.78C221.402 129.253 221.732 130.461 221.966 131.338C222.075 131.738 222.159 132.04 222.231 132.313C222.264 132.425 222.288 132.54 222.303 132.657Z" fill="#E0E0E0"/>
<path d="M252.178 124.635C252.085 124.687 251.986 124.722 251.883 124.74L251.013 124.979L247.805 125.835C245.102 126.537 241.379 127.61 237.264 128.79C233.15 129.969 229.42 130.993 226.706 131.667C225.348 132.004 224.249 132.264 223.486 132.425L222.609 132.607C222.507 132.635 222.402 132.651 222.297 132.657C222.392 132.605 222.494 132.57 222.597 132.551L223.468 132.313L226.67 131.456C229.372 130.755 233.096 129.681 237.204 128.502C241.313 127.323 245.048 126.298 247.763 125.624C249.121 125.287 250.22 125.028 250.983 124.866L251.865 124.677C251.968 124.653 252.073 124.639 252.178 124.635Z" fill="#008069" fill-opacity="0.6"/>
<path d="M13.5646 76.3587C13.5646 76.3587 16.3815 73.1023 21.8712 81.2364C24.7492 85.3539 27.3917 89.6889 29.7813 94.213C29.7813 94.213 31.1507 95.8693 32.0516 94.3674C32.9525 92.8655 33.8835 88.9915 35.8896 89.188C37.8956 89.3845 39.0488 91.7987 39.3191 95.6517C39.5894 99.5047 40.4362 107.934 40.5203 108.692C40.6044 109.45 41.1209 110.439 41.8957 109.534C42.6705 108.628 46.5685 100.922 49.6016 103.295C52.6348 105.667 51.866 116.573 51.7999 117.759C51.7338 118.945 52.0101 119.394 52.5146 119.563C53.0192 119.731 54.1303 116.994 55.3255 114.854C56.5208 112.713 58.2205 110.46 59.8662 112.011C61.5119 113.562 63.2597 121.191 59.1034 135.206L56.8151 141.523L50.959 142.498C38.304 143.684 32.418 139.803 31.5471 137.55C30.6762 135.298 32.9585 133.936 35.0367 133.122C37.1148 132.308 39.6614 131.718 39.6434 131.122C39.6254 130.525 39.3311 130.09 38.3281 129.865C37.325 129.641 28.1176 127.76 26.9163 123.753C25.7151 119.745 33.0727 117.233 34.0156 116.601C34.9586 115.969 34.2619 115.106 33.6613 114.832C33.0606 114.559 26.2857 111.478 23.1565 110.214C20.0273 108.951 18.3035 107.112 18.6579 104.712C19.0122 102.312 22.4418 102.319 23.9133 101.666C25.3848 101.014 24.3517 99.0626 24.3517 99.0626C21.1876 95.2357 18.2442 91.1679 15.5407 86.886C10.1772 78.6326 13.6727 76.2254 13.6727 76.2254" fill="#008069" fill-opacity="0.3"/>
<path d="M18.5119 83.6002C18.5389 83.6623 18.5711 83.7211 18.608 83.7757L18.9144 84.281C19.2027 84.7301 19.6051 85.3688 20.1156 86.1829C21.1667 87.8322 22.6983 90.2043 24.6082 93.1239C28.4221 98.963 33.7556 106.978 39.6777 115.793L54.8253 138.398L59.3959 145.269L60.6452 147.129L60.9756 147.606C61.0537 147.711 61.0897 147.768 61.0957 147.761C61.0688 147.698 61.0366 147.64 60.9996 147.585L60.6933 147.087L59.492 145.178C58.447 143.529 56.9094 141.156 55.0054 138.237C51.1915 132.398 45.852 124.383 39.924 115.568C33.9959 106.753 28.6684 98.7665 24.7824 92.9625C22.8664 90.078 21.3048 87.7409 20.2117 86.0987C19.6832 85.3056 19.2627 84.695 18.9684 84.2318L18.6321 83.7546C18.56 83.6493 18.5179 83.5932 18.5119 83.6002Z" fill="#008069" fill-opacity="0.6"/>
<path d="M34.7732 94.6689C34.6426 95.2707 34.568 95.8872 34.551 96.5077C34.4609 97.6447 34.3828 99.2238 34.3288 100.971C34.2747 102.719 34.2507 104.165 34.2207 105.435C34.1764 106.051 34.1764 106.671 34.2207 107.288C34.3508 106.686 34.4233 106.069 34.4369 105.449C34.515 104.305 34.581 102.726 34.6351 100.985C34.6891 99.2448 34.7252 97.7921 34.7672 96.5218C34.8151 95.9055 34.8171 95.2856 34.7732 94.6689Z" fill="#008069" fill-opacity="0.6"/>
<path d="M33.7168 107.532C31.6616 107.144 29.5908 106.88 27.5124 106.739C24.0829 106.409 21.29 106.22 21.284 106.318C23.3395 106.702 25.4103 106.964 27.4884 107.104C30.9179 107.441 33.7048 107.63 33.7168 107.532Z" fill="#008069" fill-opacity="0.6"/>
<path d="M43.6816 121.063C43.1428 121.112 42.6084 121.213 42.084 121.365C41.099 121.583 39.7476 121.885 38.246 122.165C36.7445 122.446 35.3811 122.657 34.3901 122.804C33.8495 122.854 33.3132 122.955 32.7864 123.106C33.3267 123.16 33.8704 123.146 34.4081 123.064C35.4111 122.979 36.8106 122.811 38.2941 122.523C39.7776 122.236 41.159 121.899 42.132 121.618C42.6641 121.498 43.1836 121.313 43.6816 121.063Z" fill="#008069" fill-opacity="0.6"/>
<path d="M46.8281 109.681C46.5788 110.189 46.3774 110.728 46.2275 111.288C45.9092 112.305 45.4827 113.709 45.0263 115.267C44.5698 116.825 44.1854 118.243 43.9151 119.282C43.7459 119.83 43.6212 120.397 43.5427 120.973C43.7958 120.464 43.9973 119.922 44.1434 119.359C44.4677 118.348 44.8881 116.944 45.3446 115.386C45.8011 113.828 46.1855 112.404 46.4557 111.372C46.6321 110.826 46.757 110.259 46.8281 109.681Z" fill="#008069" fill-opacity="0.6"/>
<path d="M56.9238 120.317C56.6346 120.985 56.3897 121.677 56.1911 122.388C55.7766 123.686 55.2241 125.483 54.6295 127.476C54.0349 129.469 53.5183 131.28 53.152 132.592C52.9261 133.294 52.7513 134.017 52.6294 134.754C52.9236 134.077 53.1687 133.373 53.3622 132.648C53.7766 131.357 54.3292 129.56 54.9238 127.567C55.5184 125.574 56.0409 123.763 56.4013 122.444C56.6262 121.753 56.801 121.042 56.9238 120.317Z" fill="#008069" fill-opacity="0.2"/>
<path d="M52.6465 134.377C51.9623 134.423 51.2819 134.526 50.6104 134.686C49.3611 134.917 47.6073 135.233 45.7154 135.528C43.8234 135.823 42.0636 136.047 40.8083 136.23C40.1244 136.282 39.4442 136.388 38.7722 136.546C39.4571 136.594 40.1442 136.575 40.8263 136.489C42.0936 136.391 43.8294 136.209 45.7574 135.907C47.6854 135.605 49.4092 135.254 50.6524 134.966C51.3297 134.834 51.9966 134.637 52.6465 134.377Z" fill="#008069" fill-opacity="0.6"/>
<path d="M0.173767 147.943C0.173767 148.048 57.6228 148.132 128.466 148.132C199.308 148.132 256.775 148.062 256.775 147.943C256.775 147.823 199.338 147.746 128.466 147.746C57.5928 147.746 0.173767 147.851 0.173767 147.943Z" fill="#263238"/>
<path d="M192.654 109.57L211.088 91.6171L201.819 75.1146C192.55 63.6079 172.926 64.3478 172.926 64.3478C163.244 63.7098 153.518 64.2888 143.99 66.0702C128.402 69.0298 129.659 79.0094 129.659 79.0094L127.571 116.045L125.33 146.203L182.817 147.328L192.654 109.593" fill="#3B1550"/>
<path d="M161.683 145.563L213.175 146.155C216.011 146.187 218.809 145.52 221.307 144.216C223.804 142.911 225.919 141.013 227.452 138.699C228.984 136.385 229.885 133.732 230.07 130.988C230.255 128.243 229.717 125.499 228.507 123.012L206.489 83.4307L186.431 96.5711L200.114 124.077L158.435 124.799L161.683 145.563Z" fill="#3B1550"/>
<path d="M131.479 72.9717L90.1597 134.814L114.266 136.342C114.266 136.342 128.664 114.352 128.34 114.802C127.766 115.631 131.479 72.9717 131.479 72.9717Z" fill="#3B1550"/>
<path d="M187.467 100.128C187.466 100.019 187.447 99.9115 187.412 99.8082C187.351 99.5715 187.284 99.2755 187.193 98.9086C187.003 98.1331 186.722 97.0085 186.435 95.6116C186.148 94.2147 185.825 92.5337 185.623 90.6632C185.375 88.6361 185.375 86.5877 185.623 84.5606C185.955 82.5506 186.678 80.6201 187.754 78.8724C188.619 77.4335 189.643 76.0899 190.807 74.8651C191.592 74.0279 192.428 73.2373 193.311 72.4975C193.647 72.2422 193.969 71.9696 194.275 71.6807C194.176 71.7285 194.082 71.786 193.995 71.8523C193.824 71.9766 193.549 72.1483 193.231 72.4028C192.313 73.1056 191.448 73.8711 190.642 74.6935C189.439 75.9091 188.382 77.2535 187.492 78.7007C186.377 80.4754 185.631 82.4438 185.294 84.4955C185.052 86.5477 185.068 88.6208 185.342 90.6691C185.549 92.3359 185.842 93.9915 186.222 95.6294C186.539 97.0322 186.832 98.1509 187.083 98.9204C187.193 99.3051 187.29 99.6011 187.357 99.8023C187.383 99.914 187.42 100.023 187.467 100.128Z" fill="#263238"/>
<path d="M189.132 102.261C189.22 102.569 189.338 102.868 189.486 103.155C189.73 103.746 190.096 104.54 190.567 105.522C191.501 107.529 192.826 110.287 194.352 113.306C195.879 116.325 197.32 119.03 198.388 121.001C198.926 121.971 199.365 122.776 199.677 123.291C199.825 123.578 199.997 123.853 200.189 124.114C200.08 123.812 199.945 123.519 199.786 123.238C199.475 122.646 199.072 121.853 198.565 120.9L194.615 113.205C193.119 110.204 191.757 107.493 190.744 105.463C190.267 104.51 189.877 103.717 189.571 103.095C189.449 102.806 189.302 102.527 189.132 102.261Z" fill="#263238"/>
<path d="M161.684 145.563C161.684 145.563 161.684 145.528 161.684 145.463C161.684 145.398 161.684 145.279 161.684 145.155C161.654 144.871 161.611 144.474 161.562 143.971C161.44 142.918 161.269 141.42 161.055 139.532C160.604 135.702 159.956 130.316 159.224 123.965L159.077 124.119H174.287L200.854 124.077L208.914 124.03L211.106 124H211.68H211.875C211.81 123.993 211.745 123.993 211.68 124H211.106L208.914 123.971L200.854 123.923L174.244 123.882H159.034H158.869V124.036C159.675 130.381 160.353 135.767 160.842 139.591C161.086 141.473 161.287 142.971 161.452 144.025C161.517 144.522 161.572 144.916 161.617 145.208L161.666 145.51C161.672 145.528 161.678 145.563 161.684 145.563Z" fill="#263238"/>
<path d="M199.754 124.512C200.123 124.117 200.465 123.7 200.78 123.263C202.425 121.261 204.463 119.593 206.776 118.356C207.27 118.125 207.751 117.868 208.217 117.587C207.675 117.71 207.154 117.909 206.672 118.179C204.263 119.332 202.18 121.037 200.603 123.145C200.256 123.561 199.97 124.021 199.754 124.512Z" fill="#263238"/>
<path d="M126.717 128.433C126.761 128.264 126.79 128.092 126.802 127.918C126.845 127.557 126.9 127.066 126.973 126.444C127.114 125.166 127.303 123.313 127.504 121.022C127.926 116.435 128.408 110.09 128.835 103.082C129.263 96.0734 129.562 89.7163 129.733 85.1171C129.818 82.8146 129.879 80.9738 129.904 79.6656C129.904 79.0441 129.904 78.5528 129.934 78.1859C129.944 78.0143 129.944 77.8424 129.934 77.6709C129.901 77.8407 129.882 78.013 129.879 78.1859C129.879 78.5469 129.831 79.0441 129.794 79.6656C129.727 80.9797 129.635 82.8324 129.519 85.1053C129.293 89.7044 128.957 96.0497 128.53 103.064C128.103 110.078 127.651 116.411 127.309 121.005C127.126 123.272 126.979 125.148 126.875 126.438C126.827 127.03 126.79 127.551 126.759 127.912C126.729 128.084 126.715 128.259 126.717 128.433Z" fill="#263238"/>
<path d="M172.68 94.7823C172.678 94.5108 172.655 94.2399 172.613 93.9714C172.54 93.4091 172.448 92.6574 172.332 91.734C172.064 89.7807 171.722 87.1053 171.27 84.0036L171.038 84.1457L174.988 86.8271L179.006 89.538L179.293 89.7333L179.244 89.396C178.756 86.3239 178.34 83.6722 178.023 81.7011C177.864 80.7955 177.742 80.0497 177.644 79.4933C177.612 79.2265 177.554 78.963 177.473 78.7061C177.473 78.976 177.498 79.2454 177.547 79.511C177.62 80.0674 177.712 80.8132 177.834 81.7307C178.108 83.6722 178.493 86.3299 178.933 89.4255L179.165 89.2835L175.153 86.5607L171.197 83.8912L170.91 83.6959L170.958 84.0332C171.429 87.123 171.838 89.7985 172.131 91.7281C172.283 92.6455 172.405 93.3973 172.497 93.9537C172.532 94.2346 172.594 94.512 172.68 94.7823Z" fill="#E0E0E0"/>
<path d="M149.698 97.18C149.918 97.0102 150.122 96.8221 150.308 96.6177C150.705 96.2034 151.242 95.6529 151.902 94.9781L157.354 89.2484L157.092 89.1597C157.22 90.6098 157.354 92.1843 157.495 93.818C157.635 95.4517 157.782 97.0735 157.91 98.5533L157.941 98.8966L158.173 98.6421L163.479 92.8413L164.993 91.1485C165.186 90.9548 165.358 90.7426 165.506 90.5151C165.286 90.6962 165.082 90.8942 164.895 91.107L163.32 92.7407L157.935 98.4645L158.197 98.5533C158.069 97.0794 157.935 95.4813 157.788 93.818C157.641 92.1547 157.507 90.6098 157.379 89.1597L157.348 88.8223L157.116 89.0709L151.743 94.8775L150.211 96.5763C150.024 96.7642 149.852 96.9661 149.698 97.18Z" fill="#E0E0E0"/>
<path d="M138.133 96.3867C138.247 96.6363 138.386 96.8742 138.548 97.097L139.77 99.003L144.129 105.561L144.276 105.336L139.538 104.543L134.714 103.756L134.366 103.697L134.531 103.951L138.988 110.379L140.331 112.238C140.48 112.466 140.648 112.681 140.832 112.883C140.711 112.641 140.573 112.407 140.417 112.185L139.196 110.291L134.83 103.78L134.677 104.005L139.501 104.816L144.257 105.597L144.605 105.65L144.41 105.372L139.959 98.8609L138.652 96.9964C138.492 96.7833 138.319 96.5797 138.133 96.3867Z" fill="#E0E0E0"/>
<path d="M153.513 107.856C153.627 108.104 153.766 108.339 153.928 108.561L155.149 110.473L159.502 117.025L159.655 116.8L154.905 116.007L150.075 115.214L149.727 115.161L149.928 115.439L154.386 121.873L155.699 123.72C155.844 123.948 156.012 124.162 156.199 124.359C156.077 124.117 155.938 123.884 155.784 123.66C155.466 123.187 155.051 122.554 154.563 121.772L150.197 115.261L150.044 115.486L154.868 116.297L159.625 117.072L159.973 117.132L159.777 116.848L155.326 110.337C154.789 109.567 154.349 108.94 154.013 108.472C153.862 108.255 153.695 108.05 153.513 107.856Z" fill="#E0E0E0"/>
<path d="M120.281 96.2578C120.402 96.5018 120.541 96.7372 120.696 96.9622L121.917 98.8741L126.271 105.427L126.423 105.202L121.673 104.408L116.843 103.615L116.495 103.562L116.69 103.84L121.154 110.274C121.691 111.032 122.131 111.653 122.467 112.115C122.611 112.346 122.779 112.562 122.967 112.76C122.844 112.518 122.703 112.285 122.546 112.062L121.325 110.174L116.959 103.663L116.806 103.888L121.63 104.693L126.387 105.474L126.729 105.533L126.539 105.249L122.088 98.7379L120.775 96.8734C120.631 96.6531 120.466 96.4469 120.281 96.2578Z" fill="#E0E0E0"/>
<path d="M101.106 126.054C101.324 125.893 101.528 125.715 101.717 125.521L103.39 123.959L109.135 118.501L108.879 118.401C108.928 119.857 108.976 121.431 109.031 123.071C109.086 124.711 109.154 126.338 109.209 127.806V128.15L109.459 127.907L115.052 122.373L116.652 120.757C116.85 120.573 117.034 120.376 117.201 120.165C116.984 120.327 116.78 120.505 116.591 120.697L114.93 122.254L109.251 127.712L109.514 127.812C109.465 126.332 109.41 124.734 109.355 123.077C109.3 121.42 109.233 119.863 109.178 118.407V118.069L108.934 118.306L103.274 123.846L101.656 125.468C101.456 125.648 101.272 125.844 101.106 126.054Z" fill="#E0E0E0"/>
<path d="M198.095 86.751C198.215 86.9958 198.353 87.2313 198.51 87.4554L199.731 89.3672L204.085 95.9256L204.238 95.7007L199.487 94.9016L194.657 94.1143L194.309 94.0552L194.505 94.3393L198.968 100.767L200.275 102.614C200.423 102.84 200.591 103.054 200.776 103.253C200.659 103.011 200.52 102.779 200.36 102.561L199.139 100.667C198.034 99.0272 196.52 96.7779 194.773 94.1558L194.621 94.3807L199.445 95.1916L204.201 95.9729L204.543 96.0262L204.354 95.748C202.565 93.1436 201.026 90.8944 199.902 89.237L198.59 87.3725C198.442 87.153 198.277 86.9452 198.095 86.751Z" fill="#E0E0E0"/>
<path d="M222.24 131.014C222.035 131.194 221.846 131.392 221.678 131.606L220.189 133.34L215.127 139.396L215.395 139.467C215.176 138.028 214.944 136.466 214.693 134.838C214.443 133.21 214.199 131.606 213.973 130.144L213.924 129.807L213.704 130.079L208.783 136.187L207.385 137.963C207.207 138.169 207.048 138.389 206.908 138.62C207.109 138.437 207.295 138.239 207.464 138.028L208.929 136.3L213.906 130.256L213.637 130.191C213.857 131.653 214.095 133.24 214.345 134.885C214.596 136.531 214.834 138.07 215.06 139.508L215.109 139.845L215.328 139.579L220.311 133.459L221.733 131.683C221.918 131.471 222.087 131.248 222.24 131.014Z" fill="#E0E0E0"/>
<path d="M167.106 102.353C167.38 102.409 167.657 102.445 167.937 102.459L170.257 102.654L178.28 103.246L178.182 102.998L174.665 106.194L171.106 109.45L170.849 109.686H171.203L179.184 110.113L181.492 110.207C181.768 110.23 182.046 110.23 182.322 110.207C182.05 110.154 181.775 110.121 181.498 110.107L179.196 109.929L171.222 109.396L171.313 109.645L174.885 106.401L178.39 103.193L178.646 102.956H178.298L170.269 102.489L167.949 102.376C167.669 102.348 167.387 102.34 167.106 102.353Z" fill="#E0E0E0"/>
<path d="M180.639 132.186C180.435 132.371 180.243 132.569 180.065 132.778L178.544 134.482L173.348 140.437L173.617 140.508C173.428 139.064 173.22 137.501 173.006 135.873C172.793 134.245 172.573 132.63 172.396 131.168L172.347 130.824L172.127 131.091L167.071 137.098L165.636 138.874C165.459 139.08 165.295 139.298 165.148 139.525C165.354 139.344 165.544 139.146 165.716 138.933L167.218 137.235L172.347 131.316L172.084 131.239C172.274 132.707 172.481 134.293 172.695 135.944C172.909 137.596 173.122 139.141 173.305 140.585L173.354 140.922L173.574 140.662L178.685 134.636L180.138 132.86C180.327 132.652 180.495 132.426 180.639 132.186Z" fill="#E0E0E0"/>
<path d="M204.818 110.309C205.091 110.367 205.369 110.403 205.649 110.416L207.963 110.605L215.986 111.197L215.894 110.942L212.371 114.145L208.812 117.4L208.555 117.637H208.909L216.89 118.063L219.198 118.158C219.468 118.18 219.74 118.18 220.01 118.158C219.739 118.101 219.463 118.068 219.185 118.057L216.884 117.88L208.909 117.341L209.001 117.596L212.573 114.352L216.084 111.144L216.334 110.907H215.986L207.957 110.433L205.636 110.327C205.365 110.301 205.091 110.295 204.818 110.309Z" fill="#E0E0E0"/>
<path d="M184.044 131.518C184.317 131.574 184.595 131.608 184.874 131.618L187.194 131.814L195.218 132.405L195.12 132.151L191.603 135.353L188.043 138.609L187.787 138.845H188.135L196.121 139.266L198.429 139.366C198.706 139.39 198.983 139.39 199.26 139.366C198.989 139.31 198.713 139.276 198.435 139.266L196.134 139.088L188.159 138.55L188.251 138.804L191.823 135.56L195.328 132.364L195.584 132.133H195.236L187.207 131.66L184.88 131.553C184.603 131.517 184.323 131.505 184.044 131.518Z" fill="#E0E0E0"/>
<path d="M137.143 77.5582C137.417 77.6151 137.695 77.6507 137.974 77.6648L140.294 77.8542L148.311 78.4461L148.22 78.1975L144.703 81.3938L141.143 84.6493L140.886 84.8861H141.234L149.221 85.3123L151.529 85.407C151.805 85.4302 152.083 85.4302 152.359 85.407C152.088 85.3503 151.812 85.3167 151.535 85.3063L149.233 85.1288L141.253 84.596L141.35 84.8447L144.91 81.6069L148.415 78.3987L148.671 78.162H148.323L140.294 77.6885L137.968 77.5819C137.694 77.554 137.418 77.5461 137.143 77.5582Z" fill="#E0E0E0"/>
<path d="M159.955 131.516C159.955 131.516 149.685 128.645 146.284 127.804C144.959 127.479 139.286 130.379 135.366 132.794C135.366 132.794 129.969 135.896 130.402 136.849C130.884 137.902 132.844 137.689 136.05 136.257C136.05 136.257 134.939 139.376 137.119 139.305C137.119 139.305 136.038 142.679 138.077 143.028C140.117 143.378 140.593 139.074 142.388 138.844C144.183 138.613 147.883 138.376 147.883 138.376C147.883 138.376 150.979 143.348 153.379 143.703C155.778 144.058 161.316 143.425 161.316 143.425L159.955 131.516Z" fill="#FFBE9D"/>
<path d="M142.426 132.204C141.42 132.638 140.459 133.163 139.556 133.773C138.597 134.298 137.694 134.913 136.857 135.608C138.824 134.653 140.689 133.513 142.426 132.204Z" fill="#EB996E"/>
<path d="M143.029 134.141C141.856 134.499 140.716 134.952 139.622 135.496C138.491 135.942 137.4 136.478 136.362 137.1C137.535 136.746 138.675 136.295 139.769 135.751C140.902 135.307 141.993 134.769 143.029 134.141Z" fill="#EB996E"/>
<path d="M141.93 138.763C140.379 138.757 138.834 138.956 137.338 139.355C138.889 139.359 140.434 139.16 141.93 138.763Z" fill="#EB996E"/>
<path d="M173.32 28.779C173.199 29.1626 173.197 29.5722 173.315 29.9567C173.432 30.3412 173.664 30.6836 173.981 30.9411C174.298 31.1987 174.687 31.36 175.098 31.405C175.509 31.45 175.925 31.3766 176.293 31.194C177.685 30.5133 177.862 28.6488 177.588 27.1631C177.313 25.6774 176.794 24.0852 177.435 22.706C177.93 21.6524 178.998 20.9835 179.828 20.1549C180.561 19.4346 181.112 18.5595 181.437 17.5982C181.762 16.6369 181.853 15.6157 181.703 14.6146C181.527 13.6165 181.07 12.6848 180.383 11.9224C179.695 11.16 178.804 10.5963 177.807 10.2936C175.762 9.74316 173.24 10.3528 171.701 8.91449C170.596 7.87273 170.529 6.17394 169.674 4.93093C168.349 3.0013 165.547 2.69351 163.178 3.00722C160.808 3.32094 158.403 4.06082 156.083 3.4985C154.147 3.03089 152.559 1.72277 150.74 0.917772C148.757 0.0390066 146.54 -0.216976 144.399 0.185615C142.259 0.588206 140.302 1.62924 138.801 3.16315C137.301 4.69706 136.333 6.64713 136.032 8.74068C135.731 10.8342 136.113 12.9666 137.124 14.8395C137.798 16.2101 138.944 17.3094 140.366 17.947" fill="#263238"/>
<path d="M161.539 77.6771C159.982 77.6742 158.441 77.3716 157.005 76.787C155.57 76.2025 154.268 75.3475 153.176 74.2717C152.084 73.1958 151.223 71.9206 150.643 70.5198C150.063 69.119 149.775 67.6205 149.797 66.1112L149.95 55.2319C149.95 55.2319 140.522 54.3144 139.899 45.2582C139.277 36.202 139.722 15.3016 139.722 15.3016C144.91 12.8069 150.69 11.6986 156.466 12.0908C162.242 12.4831 167.806 14.3617 172.584 17.5331L174.025 18.498L173.323 66.4072C173.286 69.4117 172.028 72.2807 169.821 74.3909C167.615 76.5011 164.638 77.682 161.539 77.6771Z" fill="#FFBE9D"/>
<path d="M142.187 31.7388C142.528 31.7008 142.843 31.5425 143.071 31.2942C143.3 31.0459 143.426 30.7249 143.426 30.3922C143.426 30.0595 143.3 29.7384 143.071 29.4901C142.843 29.2418 142.528 29.0836 142.187 29.0456C142.113 29.0278 142.036 29.0278 141.961 29.0456C141.62 29.0836 141.306 29.2418 141.077 29.4901C140.849 29.7384 140.723 30.0595 140.723 30.3922C140.723 30.7249 140.849 31.0459 141.077 31.2942C141.306 31.5425 141.62 31.7008 141.961 31.7388C142.036 31.7506 142.112 31.7506 142.187 31.7388Z" fill="#263238"/>
<path d="M140.356 28.8152C140.508 28.9691 141.387 28.2233 142.676 28.1582C143.964 28.0931 144.935 28.6791 145.063 28.5134C145.191 28.3476 144.972 28.1641 144.544 27.8859C143.973 27.5307 143.299 27.3625 142.622 27.4062C141.945 27.4499 141.301 27.7031 140.783 28.1286C140.398 28.4601 140.276 28.7797 140.356 28.8152Z" fill="#263238"/>
<path d="M155.248 29.1234C155.027 29.2721 154.856 29.4811 154.757 29.7241C154.658 29.967 154.635 30.2329 154.692 30.4882C154.749 30.7435 154.883 30.9766 155.077 31.158C155.271 31.3395 155.516 31.4611 155.781 31.5076C156.046 31.554 156.32 31.5231 156.567 31.4189C156.814 31.3146 157.023 31.1417 157.169 30.9219C157.314 30.7021 157.39 30.4454 157.385 30.1843C157.38 29.9231 157.295 29.6693 157.141 29.4549C156.935 29.1679 156.62 28.9718 156.265 28.9097C155.91 28.8476 155.545 28.9244 155.248 29.1234Z" fill="#263238"/>
<path d="M154.399 29.1746C154.557 29.3285 155.437 28.5827 156.719 28.5176C158.001 28.4525 158.978 29.0385 159.112 28.8727C159.18 28.7958 159.015 28.5235 158.593 28.2453C158.022 27.89 157.349 27.7219 156.672 27.7656C155.994 27.8093 155.35 28.0625 154.832 28.488C154.448 28.8195 154.325 29.1095 154.399 29.1746Z" fill="#263238"/>
<path d="M149.796 39.7485C149.796 39.6538 148.996 39.5354 147.69 39.4288C147.354 39.4288 147.079 39.3519 147.049 39.1802C147.024 38.8539 147.089 38.527 147.238 38.2332C147.525 37.3867 147.812 36.5344 148.117 35.6406C149.338 31.953 150.138 28.9165 149.949 28.8573C149.76 28.7981 148.624 31.7399 147.421 35.4275C147.14 36.3272 146.865 37.2033 146.603 38.0319C146.409 38.4628 146.37 38.9444 146.493 39.3992C146.547 39.5221 146.631 39.6306 146.737 39.716C146.843 39.8014 146.969 39.8612 147.104 39.8905C147.294 39.9317 147.489 39.9457 147.684 39.932C149.002 39.9083 149.796 39.8491 149.796 39.7485Z" fill="#263238"/>
<path d="M154.07 40.9072C152.107 41.8839 150.016 42.5949 147.854 43.0203C148.328 43.6515 149.008 44.1086 149.785 44.3171C150.561 44.5256 151.387 44.4733 152.128 44.1686C154.882 43.0263 154.07 40.9072 154.07 40.9072Z" fill="white"/>
<path d="M149.912 55.1029C154.234 54.9535 158.413 53.5606 161.916 51.1016C161.916 51.1016 159.4 57.7724 150.028 57.4528L149.912 55.1029Z" fill="#EB996E"/>
<path d="M139.639 17.593C139.639 17.593 145.287 20.3749 152.767 16.93C157.652 14.6689 163.373 13.6212 164.606 14.5979C165.84 15.5746 166.005 20.4282 170.792 21.9376C170.792 21.9376 170.273 31.2069 174.095 30.9465C177.917 30.686 175.817 16.2848 175.817 16.2848L166.578 11.6916L156.437 9.6377L146.82 10.7682L139.358 12.5972L139.639 17.593Z" fill="#263238"/>
<path d="M173.401 27.9669C173.554 27.89 179.721 25.7828 179.861 31.9919C180.001 38.2011 173.547 37.0587 173.535 36.8811C173.523 36.7035 173.401 27.9669 173.401 27.9669Z" fill="#FFBE9D"/>
<path d="M175.441 34.4856C175.441 34.4856 175.557 34.5626 175.747 34.6395C176.015 34.7452 176.315 34.7452 176.583 34.6395C177.255 34.385 177.804 33.3314 177.804 32.2127C177.805 31.6794 177.686 31.1523 177.456 30.6678C177.39 30.4756 177.278 30.3015 177.128 30.1603C176.978 30.0192 176.795 29.9151 176.595 29.8569C176.466 29.8341 176.333 29.8523 176.215 29.9089C176.097 29.9654 176.002 30.0572 175.942 30.1706C175.863 30.3423 175.905 30.4666 175.875 30.4784C175.844 30.4902 175.734 30.3778 175.777 30.1233C175.811 29.9684 175.897 29.8288 176.021 29.7267C176.194 29.5949 176.413 29.5334 176.632 29.555C176.896 29.5992 177.145 29.7084 177.353 29.8722C177.561 30.0359 177.723 30.2487 177.823 30.4902C178.105 31.0232 178.251 31.6137 178.25 32.2127C178.25 33.4616 177.603 34.6514 176.687 34.9296C176.516 34.9803 176.335 34.9938 176.158 34.9693C175.98 34.9447 175.811 34.8827 175.661 34.7875C175.441 34.6395 175.441 34.4975 175.441 34.4856Z" fill="#EB996E"/>
<path d="M176.662 8.53605C175.931 8.32828 175.151 8.35555 174.438 8.61378C173.725 8.87201 173.117 9.3473 172.705 9.96847C173.275 9.55049 173.889 9.19328 174.537 8.90303C175.23 8.70945 175.943 8.58646 176.662 8.53605Z" fill="#263238"/>
<path d="M172.808 4.81934C172.692 4.81934 172.869 6.12746 172.65 7.67826C172.46 8.61062 172.158 9.51839 171.752 10.3833C171.752 10.3833 172.021 10.1643 172.289 9.7026C172.634 9.08815 172.862 8.41841 172.961 7.72561C173.139 6.75821 173.087 5.76422 172.808 4.81934Z" fill="#263238"/>
<path d="M146.497 25.8204C146.533 25.7493 146.259 25.5303 145.74 25.3291C144.362 24.8126 142.832 24.8274 141.465 25.3705C140.953 25.5836 140.678 25.8026 140.714 25.8736C140.794 26.0394 142.027 25.5718 143.609 25.5718C145.19 25.5718 146.423 26.0038 146.497 25.8204Z" fill="#263238"/>
<path d="M160.786 24.5288C160.822 24.4577 160.548 24.2447 160.029 24.0375C159.345 23.7815 158.618 23.6549 157.886 23.6646C157.15 23.6644 156.422 23.8052 155.742 24.0789C155.229 24.292 154.961 24.511 154.991 24.588C155.022 24.6649 156.304 24.2861 157.892 24.2802C159.479 24.2742 160.7 24.6945 160.786 24.5288Z" fill="#263238"/>
<path d="M147.602 26.8147C147.589 26.9366 147.589 27.0597 147.602 27.1817C147.602 27.4421 147.602 27.7736 147.572 28.182C147.541 28.5904 147.572 29.1409 147.535 29.7328C147.558 30.4159 147.455 31.0975 147.23 31.7453C146.936 32.5856 146.426 33.3397 145.749 33.937C145.072 34.5344 144.249 34.9554 143.359 35.1606C142.848 35.2817 142.321 35.3256 141.796 35.2908C141.25 35.267 140.711 35.1571 140.202 34.9653C139.116 34.5707 138.191 33.8461 137.564 32.8995C136.972 31.9956 136.674 30.9395 136.709 29.8689C136.709 28.8094 136.709 27.7913 136.709 26.8147L136.563 26.9567L144.501 26.8857L146.803 26.8443H147.413H147.639C147.378 26.8161 147.114 26.8042 146.851 26.8088L144.586 26.7673L136.563 26.6963H136.361V26.8443C136.361 27.8209 136.361 28.839 136.361 29.8985C136.32 31.0274 136.633 32.1418 137.259 33.0948C137.923 34.097 138.904 34.8634 140.056 35.279C140.596 35.4804 141.168 35.5944 141.747 35.6164C142.299 35.6482 142.853 35.5983 143.389 35.4684C144.323 35.2496 145.184 34.8014 145.887 34.1669C146.591 33.5325 147.114 32.7332 147.407 31.8459C147.626 31.1689 147.717 30.459 147.676 29.7505C147.676 29.1586 147.676 28.6082 147.645 28.1583C147.615 27.7085 147.645 27.4303 147.615 27.1698C147.62 27.0513 147.616 26.9325 147.602 26.8147Z" fill="#263238"/>
<path d="M162.571 26.5069C162.571 26.5069 162.571 26.6431 162.571 26.8739V27.8743C162.571 28.3123 162.571 28.8331 162.541 29.431C162.557 30.1137 162.454 30.7941 162.236 31.4435C161.954 32.2229 161.493 32.9295 160.886 33.5092C160.186 34.1691 159.314 34.6333 158.364 34.8529C157.314 35.0983 156.211 35.0302 155.202 34.6575C154.118 34.2635 153.196 33.541 152.57 32.5977C151.975 31.6944 151.675 30.6383 151.709 29.5671C151.709 28.5076 151.709 27.4836 151.709 26.5069L151.562 26.649L159.5 26.578L161.796 26.5425H162.407H162.632C162.373 26.5144 162.112 26.5026 161.851 26.5069L159.586 26.4714L151.562 26.4004H151.416V26.5425C151.416 27.5191 151.416 28.5431 151.416 29.6026C151.379 30.7319 151.694 31.8457 152.32 32.7989C152.983 33.7976 153.962 34.5616 155.11 34.9772C155.651 35.1781 156.222 35.2921 156.801 35.3146C157.355 35.3462 157.911 35.2963 158.45 35.1666C159.448 34.9284 160.36 34.4311 161.088 33.7282C161.717 33.1148 162.19 32.3667 162.468 31.5441C162.687 30.8671 162.778 30.1572 162.736 29.4487C162.736 28.8568 162.736 28.3063 162.7 27.8565C162.663 27.4066 162.7 27.1284 162.7 26.868C162.677 26.7417 162.634 26.6198 162.571 26.5069Z" fill="#263238"/>
<path d="M147.469 27.2457C148.865 27.4511 150.285 27.4511 151.682 27.2457C150.286 27.0327 148.864 27.0327 147.469 27.2457Z" fill="#263238"/>
<path d="M174.217 27.3233C172.276 27.1664 170.327 27.1091 168.38 27.1516C166.431 27.0981 164.48 27.1435 162.536 27.2878C164.477 27.452 166.426 27.5093 168.373 27.4594C170.322 27.5198 172.273 27.4743 174.217 27.3233Z" fill="#263238"/>
<path d="M111.404 139.023C110.032 141.491 107.954 143.523 105.42 144.875C102.885 146.226 100.002 146.839 97.1164 146.641C93.7076 146.409 90.4819 145.058 87.972 142.81C85.4621 140.562 83.818 137.552 83.3109 134.276L79.7695 94.9786L93.9536 91.5811L99.7481 122.36C99.7481 122.36 102.777 135.258 111.404 139.023Z" fill="#FFBE9D"/>
<path d="M94.084 94.428L93.6138 87.5322C93.6138 87.5322 91.605 72.0597 91.605 70.5444C91.605 68.8041 90.744 68.378 90.0785 68.4253C89.0466 68.4904 88.3139 69.7275 88.2467 71.2251C88.2467 71.74 88.2956 79.9202 88.2956 79.9202C87.8076 79.1472 87.2628 78.4094 86.6653 77.7124C85.4441 76.1794 82.4888 75.3033 79.4786 75.398C76.4684 75.4927 75.6441 75.7768 75.6258 76.9074C75.6364 77.1234 75.6968 77.3344 75.8024 77.5249C75.9081 77.7154 76.0563 77.8806 76.2364 78.0084C76.7919 78.4573 77.4979 78.6931 78.2208 78.6713C83.0384 78.5884 84.3267 81.0804 84.3267 81.0804L84.3878 81.986C84.3878 81.986 81.463 79.9557 79.1306 80.8022C78.786 80.9258 78.4705 81.1149 78.2025 81.3586C77.5457 81.3611 76.9011 81.5301 76.3325 81.8486C75.7638 82.1672 75.291 82.6243 74.9608 83.1747C74.6307 83.7251 74.4547 84.3496 74.4503 84.9862C74.4459 85.6228 74.6133 86.2495 74.9358 86.8041C75.0614 87.0887 75.2738 87.3291 75.5445 87.4931C75.8152 87.6571 76.1312 87.7369 76.4501 87.7216C76.773 87.6277 77.0654 87.4544 77.2988 87.2185C77.4355 87.106 77.5804 87.0031 77.7323 86.9107L78.2696 89.4145C78.2696 89.4145 79.79 94.9784 80.1686 97.4763" fill="#FFBE9D"/>
<path d="M92.6987 93.8886C91.8194 94.1254 90.9096 93.498 90.4334 92.7403C89.9571 91.9827 89.7556 91.0889 89.3404 90.2957C88.0826 87.9281 85.0663 86.8034 83.9122 84.3766C83.7535 84.0392 83.668 83.5775 83.9733 83.3526C84.2786 83.1277 84.6571 83.3112 84.9686 83.4769L92.9062 87.7387" fill="#FFBE9D"/>
<path d="M92.9141 87.726C92.6669 87.5135 92.3943 87.3306 92.102 87.1814C91.5647 86.8559 90.777 86.406 89.8 85.8555L86.3502 83.9437L85.3549 83.3991C84.984 83.1147 84.5118 82.9849 84.0422 83.038C83.8971 83.0835 83.7697 83.1707 83.677 83.2881C83.5843 83.4055 83.5306 83.5474 83.5232 83.695C83.5073 83.9383 83.5512 84.1818 83.6514 84.4053C83.835 84.8003 84.0644 85.1736 84.3352 85.5181C85.4343 86.9032 86.857 87.7733 87.8828 88.7855C88.3816 89.2436 88.8057 89.7725 89.1406 90.354C89.4398 90.8986 89.6291 91.4668 89.8611 91.9818C90.0037 92.4116 90.2415 92.806 90.558 93.1373C90.8744 93.4686 91.2618 93.7287 91.6929 93.8996C92.3462 94.089 92.7126 93.8996 92.6881 93.8641C92.3718 93.8735 92.0566 93.8232 91.7601 93.7161C91.3782 93.5271 91.0409 93.2632 90.7698 92.9412C90.4986 92.6193 90.2994 92.2462 90.1847 91.8457C89.9892 91.2723 89.763 90.7092 89.507 90.1587C89.1701 89.5286 88.731 88.955 88.2064 88.4599C87.1562 87.3945 85.764 86.5007 84.7382 85.2163C84.4966 84.9061 84.2918 84.5706 84.1277 84.2159C83.975 83.8785 83.9994 83.5411 84.1948 83.5056C84.3902 83.4701 84.7749 83.6299 85.1107 83.8134L86.1243 84.3462L89.623 86.1929C90.6244 86.7079 91.4548 87.1104 92.0043 87.3767C92.289 87.5342 92.5953 87.6517 92.9141 87.726Z" fill="#EB996E"/>
<path d="M84.497 82.0502C84.443 81.4901 84.2526 80.9505 83.9414 80.4757C83.5797 79.9888 83.0658 79.6276 82.4759 79.4458C81.737 79.2103 80.9641 79.0905 80.1862 79.0906C79.3876 79.0983 78.5901 79.031 77.8049 78.8894C77.1471 78.7593 76.5363 78.4632 76.0342 78.0311C75.8673 77.8818 75.7377 77.6976 75.6552 77.4925C75.5727 77.2874 75.5394 77.0667 75.5579 76.8473C75.5668 76.686 75.6217 76.5302 75.7167 76.3975C75.7472 76.3975 75.7167 76.5691 75.6862 76.8532C75.689 77.0516 75.7364 77.247 75.8249 77.4259C75.9135 77.6048 76.0412 77.7628 76.1991 77.8891C76.6872 78.2615 77.2613 78.5133 77.8721 78.623C78.6409 78.7455 79.4194 78.801 80.1984 78.7888C81.0054 78.7802 81.8081 78.9022 82.5736 79.1498C83.2138 79.3659 83.7616 79.7824 84.1306 80.3337C84.3697 80.7046 84.5083 81.1281 84.5336 81.5648C84.5683 81.7268 84.5556 81.8949 84.497 82.0502Z" fill="#EB996E"/>
<path d="M88.2892 70.6455C88.3411 71.1869 88.3411 71.7318 88.2892 72.2733C88.2892 73.3861 88.2892 74.7178 88.2465 76.1858C88.2038 77.6537 88.2465 78.9855 88.2465 80.0983C88.2832 80.6409 88.2709 81.1856 88.2099 81.7261C88.0763 81.1952 88.0087 80.6507 88.0084 80.1042C87.9351 79.1039 87.8862 77.7366 87.8923 76.1858C87.8984 74.635 87.9595 73.2617 88.0328 72.2614C88.0582 71.7154 88.1442 71.1737 88.2892 70.6455Z" fill="#EB996E"/>
<path d="M82.5927 83.8698C82.4222 83.83 82.2579 83.7683 82.1043 83.6863C81.9053 83.5876 81.6869 83.5313 81.4636 83.5211C81.2404 83.5109 81.0175 83.547 80.8098 83.6271C80.6823 83.6942 80.5748 83.7922 80.4977 83.9114C80.4207 84.0307 80.3768 84.1672 80.3702 84.3078C80.3507 84.6608 80.3774 85.0148 80.4496 85.3614C80.5506 85.7969 80.4786 86.2534 80.2481 86.6399C80.1022 86.8385 79.91 87.0009 79.6872 87.1141C79.4645 87.2272 79.2173 87.2878 78.9658 87.291C78.7186 87.2893 78.4744 87.2392 78.2477 87.1435C78.021 87.0479 77.8167 86.9088 77.6469 86.7346C77.3286 86.425 77.1155 86.0285 77.0364 85.5981C76.9406 84.902 76.9509 84.196 77.0669 83.5028C77.1301 83.0339 77.2768 82.5793 77.5004 82.1591C77.6714 81.8632 77.8301 81.7507 77.8423 81.7626C77.8545 81.7744 77.7446 81.9224 77.6164 82.2124C77.4489 82.638 77.344 83.0843 77.305 83.5383C77.2248 84.2056 77.235 84.8802 77.3355 85.5449C77.4132 85.9213 77.6147 86.2632 77.9097 86.5193C78.2047 86.7754 78.5774 86.9319 78.9719 86.9654C79.1706 86.9643 79.3662 86.9182 79.5432 86.8309C79.7202 86.7435 79.8738 86.6173 79.9916 86.4623C80.1761 86.1377 80.2346 85.7597 80.1565 85.3969C80.0884 85.0238 80.072 84.6436 80.1076 84.2663C80.1253 84.0861 80.1909 83.9135 80.2979 83.7651C80.4049 83.6168 80.5497 83.4978 80.7182 83.4199C80.9557 83.3323 81.2113 83.3005 81.4639 83.3273C81.7166 83.354 81.959 83.4385 82.1714 83.5738C82.4584 83.7395 82.6294 83.8283 82.5927 83.8698Z" fill="#EB996E"/>
<path d="M77.7858 86.4837C77.8286 86.6382 77.8112 86.8025 77.7369 86.9454C77.651 87.1484 77.5184 87.3298 77.349 87.4754C77.1797 87.6211 76.9782 87.7273 76.76 87.7859C76.4311 87.8544 76.0895 87.8391 75.7685 87.7416C75.4475 87.6441 75.158 87.4677 74.9282 87.2295C74.3778 86.6432 74.0824 85.8733 74.1039 85.0809C74.1039 84.2979 74.3558 83.5344 74.8244 82.8967C75.2069 82.3766 75.7283 81.9674 76.3326 81.7129C76.729 81.5395 77.1559 81.4411 77.5904 81.4229C77.8957 81.4229 78.0605 81.4228 78.0605 81.4702C77.4971 81.5407 76.9476 81.6923 76.4303 81.9201C75.888 82.1811 75.422 82.5698 75.0748 83.0506C74.6689 83.6475 74.4563 84.3483 74.4642 85.0631C74.4439 85.773 74.6963 86.4649 75.1725 87.0046C75.366 87.217 75.6122 87.378 75.8879 87.4723C76.1636 87.5666 76.4596 87.591 76.7478 87.5432C76.94 87.5015 77.1208 87.4201 77.2777 87.3047C77.4347 87.1893 77.5642 87.0425 77.6576 86.8743C77.743 86.6494 77.7431 86.4837 77.7858 86.4837Z" fill="#EB996E"/>
<path d="M83.5899 91.9532C83.8522 91.8728 84.1336 91.8728 84.3959 91.9532C85.0833 92.0989 85.7015 92.461 86.1544 92.9831L85.8735 93.066C85.9106 92.6995 85.9718 92.3357 86.0567 91.9768C86.2997 90.7043 86.9021 89.522 87.7969 88.5615C87.1989 89.6718 86.724 90.8405 86.3803 92.0479C86.2948 92.4149 86.2338 92.77 86.191 93.1015L86.1422 93.4685L85.904 93.1784C85.4991 92.6946 84.9583 92.3349 84.347 92.1426C83.8891 92.0064 83.5899 91.9946 83.5899 91.9532Z" fill="#EB996E"/>
<path d="M83.4356 78.0399C83.5149 78.0754 83.1913 78.6318 82.4464 78.9692C81.7015 79.3066 81.042 79.1113 81.0726 79.0284C81.1031 78.9455 81.6832 78.9514 82.2938 78.6732C82.9043 78.395 83.3562 77.9807 83.4356 78.0399Z" fill="#EB996E"/>
<path d="M96.5272 98.8916L78.704 100.129C78.704 100.129 81.4455 130.701 81.9768 135.442C82.508 140.183 85.6403 147.334 96.5272 147.334C107.414 147.334 109.441 143.741 114.283 136.342C108.574 132.506 99.5069 121.053 99.5069 121.053L96.5272 98.8916Z" fill="#3B1550"/>
<path d="M88.1263 103.003C88.218 103.261 88.3282 103.512 88.4561 103.755L89.4513 105.791L92.9683 112.829L93.1454 112.621L88.5232 111.29L83.8278 109.952L83.4858 109.857L83.6507 110.159L87.3143 117.055L88.395 119.038C88.5146 119.28 88.6555 119.512 88.8163 119.73C88.7229 119.477 88.6127 119.23 88.4866 118.99C88.2301 118.481 87.876 117.807 87.4852 116.972L83.9377 110.029L83.7606 110.236L88.4499 111.586L93.0782 112.9L93.4141 112.994L93.2553 112.692L89.6101 105.726C89.1643 104.903 88.8041 104.228 88.5354 103.725C88.4202 103.474 88.2834 103.232 88.1263 103.003Z" fill="#E0E0E0"/>
<path d="M89.8094 132.409C90.0829 132.466 90.3606 132.502 90.6398 132.516L92.9601 132.711L100.983 133.303L100.886 133.048L97.3686 136.245L93.8088 139.5L93.5524 139.737H93.9065L101.887 140.163L104.195 140.258C104.471 140.281 104.749 140.281 105.025 140.258C104.754 140.206 104.478 140.174 104.201 140.163L101.899 139.98L93.9248 139.447L94.0164 139.702L97.5884 136.452L101.093 133.244L101.35 133.013H101.002L92.9723 132.545L90.6459 132.433C90.3681 132.404 90.0885 132.396 89.8094 132.409Z" fill="#E0E0E0"/>
<path d="M110.677 87.749L130.612 145.354H166.559V147.958H59.4866L37.5821 87.749H110.677Z" fill="#263238"/>
<path d="M80.2018 121.759C80.9225 124.657 83.0247 126.489 84.8986 125.857C86.7725 125.226 87.7035 122.348 86.9828 119.45C86.262 116.551 84.1538 114.72 82.2799 115.351C80.406 115.983 79.475 118.86 80.2018 121.759Z" fill="#FAFAFA"/>
</svg>
