<svg width="16" height="16" viewBox="0 0 16 16" fill="none" xmlns="http://www.w3.org/2000/svg">
<path d="M13.18 10.8778L12.0289 9.72665L13.18 8.57555C14.7694 6.9862 14.7694 4.40932 13.18 2.81996C11.5907 1.23059 9.01377 1.23059 7.42442 2.81996L6.2733 3.97107L5.12219 2.81996L6.2733 1.66883C8.49845 -0.556277 12.106 -0.556277 14.3312 1.66883C16.5563 3.89394 16.5563 7.50152 14.3312 9.72665L13.18 10.8778ZM10.8777 13.1801L9.72664 14.3312C7.50158 16.5562 3.89394 16.5562 1.66883 14.3312C-0.556277 12.106 -0.556277 8.49838 1.66883 6.27331L2.81995 5.12219L3.97107 6.27331L2.81995 7.42444C1.23059 9.01378 1.23059 11.5906 2.81995 13.1801C4.40931 14.7694 6.98618 14.7694 8.57553 13.1801L9.72664 12.0289L10.8777 13.1801ZM10.3022 4.54663L11.4534 5.69775L5.69775 11.4533L4.54663 10.3022L10.3022 4.54663Z" fill="#3B1550"/>
</svg>
