<svg width="24" height="24" viewBox="0 0 24 24" fill="none" xmlns="http://www.w3.org/2000/svg">
    <path d="M16.4444 3V4.77778H19.117C19.6046 4.77778 20 5.17329 20 5.6608V19.8948C20 20.3824 19.6045 20.7778 19.117 20.7778H4.88302C4.39534 20.7778 4 20.3823 4 19.8948V5.6608C4 5.17312 4.39551 4.77778 4.88302 4.77778H7.55556V3H16.4444ZM7.55556 6.55556H5.77778V19H18.2222V6.55556H16.4444V8.33333H7.55556V6.55556ZM9.33333 15.4444V17.2222H7.55556V15.4444H9.33333ZM9.33333 12.7778V14.5556H7.55556V12.7778H9.33333ZM9.33333 10.1111V11.8889H7.55556V10.1111H9.33333ZM14.6667 4.77778H9.33333V6.55556H14.6667V4.77778Z" fill="black"/>
</svg>
