<svg width="24" height="24" viewBox="0 0 24 24" fill="none" xmlns="http://www.w3.org/2000/svg">
    <path d="M4.82143 4.70476C4.91294 4.29298 5.27817 4 5.7 4H18.3C18.7218 4 19.087 4.29298 19.1786 4.70476L20.9786 12.8048C20.9928 12.8689 21 12.9343 21 13V19.3C21 19.7971 20.5971 20.2 20.1 20.2H3.9C3.40295 20.2 3 19.7971 3 19.3V13C3 12.9343 3.00719 12.8689 3.02143 12.8048L4.82143 4.70476ZM6.42195 5.8L5.02196 12.1H9.3C9.3 13.5912 10.5088 14.8 12 14.8C13.4912 14.8 14.7 13.5912 14.7 12.1H18.9781L17.578 5.8H6.42195ZM16.1256 13.9C15.4312 15.4893 13.8453 16.6 12 16.6C10.1547 16.6 8.56884 15.4893 7.87444 13.9H4.8V18.4H19.2V13.9H16.1256Z" fill="#3B1550"/>
</svg>
