<svg width="24" height="24" viewBox="0 0 24 24" fill="none" xmlns="http://www.w3.org/2000/svg">
    <path d="M18.3123 4C18.7773 4 19.1542 4.37694 19.1542 4.8419V8.00492L17.4704 9.68872V5.6838H5.6838V19.1542H17.4704V16.8323L19.1542 15.1485V19.9961C19.1542 20.4611 18.7773 20.838 18.3123 20.838H4.8419C4.37694 20.838 4 20.4611 4 19.9961V4.8419C4 4.37694 4.37694 4 4.8419 4H18.3123ZM19.8094 9.73133L21 10.9219L14.4515 17.4704L13.2591 17.4686L13.2609 16.2798L19.8094 9.73133ZM12.419 12.419V14.1028H8.2095V12.419H12.419ZM14.9447 9.0514V10.7352H8.2095V9.0514H14.9447Z" fill="black"/>
</svg>
