<svg width="42" height="42" viewBox="0 0 42 42" fill="none" xmlns="http://www.w3.org/2000/svg">
<path d="M3.5 4.78524C3.5 4.04193 4.05431 3.5 4.66417 3.5H23.7929L32.4995 12.2071L32.5 37.1865C32.5 37.9557 31.9405 38.5 31.3443 38.5H4.65567C4.05574 38.5 3.5 37.9443 3.5 37.2148V4.78524Z" fill="white" stroke="#333333"/>
<path d="M23 13V3L33 13H23Z" fill="#333333"/>
<rect width="25" height="12" transform="translate(14 20)" fill="#333333"/>
<path d="M19.8628 27.5986V22.1792H21.4688V27.5986C21.4688 28.1214 21.3542 28.5708 21.125 28.9468C20.8958 29.3192 20.5825 29.6056 20.1851 29.8062C19.7912 30.0067 19.3472 30.1069 18.853 30.1069C18.341 30.1069 17.888 30.021 17.4941 29.8491C17.1003 29.6772 16.7905 29.4141 16.5649 29.0596C16.3394 28.7015 16.2266 28.2485 16.2266 27.7007H17.8433C17.8433 27.9871 17.8826 28.2145 17.9614 28.3828C18.0438 28.5511 18.1602 28.6711 18.3105 28.7427C18.4609 28.8143 18.6418 28.8501 18.853 28.8501C19.0571 28.8501 19.2344 28.8018 19.3848 28.7051C19.5352 28.6084 19.6515 28.467 19.7339 28.2808C19.8198 28.0946 19.8628 27.8672 19.8628 27.5986Z" fill="white"/>
<path d="M25.8892 27.2119H23.8965V25.9551H25.8892C26.1971 25.9551 26.4478 25.9049 26.6411 25.8047C26.8345 25.7008 26.9759 25.5576 27.0654 25.375C27.1549 25.1924 27.1997 24.9865 27.1997 24.7573C27.1997 24.5246 27.1549 24.3079 27.0654 24.1074C26.9759 23.9069 26.8345 23.7458 26.6411 23.624C26.4478 23.5023 26.1971 23.4414 25.8892 23.4414H24.4551V29.9995H22.8438V22.1792H25.8892C26.5015 22.1792 27.026 22.2902 27.4629 22.5122C27.9033 22.7306 28.2399 23.0332 28.4727 23.4199C28.7054 23.8066 28.8218 24.2489 28.8218 24.7466C28.8218 25.2515 28.7054 25.6883 28.4727 26.0571C28.2399 26.4259 27.9033 26.7106 27.4629 26.9111C27.026 27.1117 26.5015 27.2119 25.8892 27.2119Z" fill="white"/>
<path d="M36.1318 25.9121V29.0112C36.0101 29.158 35.8221 29.3174 35.5679 29.4893C35.3136 29.6576 34.986 29.8026 34.585 29.9243C34.1839 30.0461 33.6987 30.1069 33.1294 30.1069C32.6245 30.1069 32.1644 30.0246 31.749 29.8599C31.3337 29.6916 30.9756 29.4463 30.6748 29.124C30.3776 28.8018 30.1484 28.4079 29.9873 27.9424C29.8262 27.4733 29.7456 26.938 29.7456 26.3364V25.8477C29.7456 25.2461 29.8226 24.7108 29.9766 24.2417C30.1341 23.7726 30.3579 23.377 30.6479 23.0547C30.938 22.7324 31.2835 22.4871 31.6846 22.3188C32.0856 22.1506 32.5314 22.0664 33.022 22.0664C33.7023 22.0664 34.2609 22.1774 34.6978 22.3994C35.1346 22.6178 35.4676 22.9222 35.6968 23.3125C35.9295 23.6992 36.0728 24.1432 36.1265 24.6445H34.5635C34.5241 24.3796 34.4489 24.1486 34.3379 23.9517C34.2269 23.7547 34.0675 23.6007 33.8599 23.4897C33.6558 23.3787 33.3908 23.3232 33.0649 23.3232C32.7964 23.3232 32.5565 23.3787 32.3452 23.4897C32.1375 23.5972 31.9621 23.7565 31.8188 23.9678C31.6756 24.179 31.5664 24.4404 31.4912 24.752C31.416 25.0635 31.3784 25.4251 31.3784 25.8369V26.3364C31.3784 26.7446 31.4178 27.1063 31.4966 27.4214C31.5754 27.7329 31.6917 27.9961 31.8457 28.2109C32.0033 28.4222 32.1966 28.5815 32.4258 28.689C32.6549 28.7964 32.9217 28.8501 33.2261 28.8501C33.4803 28.8501 33.6916 28.8286 33.8599 28.7856C34.0317 28.7427 34.1696 28.6908 34.2734 28.6299C34.3809 28.5654 34.4632 28.5046 34.5205 28.4473V27.0615H33.0488V25.9121H36.1318Z" fill="white"/>
</svg>
