<svg width="42" height="42" viewBox="0 0 42 42" fill="none" xmlns="http://www.w3.org/2000/svg">
<path d="M3.5 4.78524C3.5 4.04193 4.05431 3.5 4.66417 3.5H23.7929L32.4995 12.2071L32.5 37.1865C32.5 37.9557 31.9405 38.5 31.3443 38.5H4.65567C4.05574 38.5 3.5 37.9443 3.5 37.2148V4.78524Z" fill="#D6CCDB" stroke="#887096"/>
<path d="M23 13V3L33 13H23Z" fill="#887096"/>
<rect width="25" height="12" transform="translate(14 20)" fill="#3B1550"/>
<path d="M18.7617 22.1074L20.3247 24.895L21.8931 22.1074H23.5903L21.27 25.9854L23.6494 29.9277H21.936L20.3247 27.0864L18.7188 29.9277H17L19.3794 25.9854L17.0591 22.1074H18.7617Z" fill="white"/>
<path d="M29.52 28.7676V29.9277H25.5884V28.7676H29.52ZM26.0342 22.1074V29.9277H24.5571V22.1074H26.0342Z" fill="white"/>
<path d="M34.6011 27.8975C34.6011 27.7471 34.5778 27.6128 34.5312 27.4946C34.4883 27.3729 34.4077 27.2637 34.2896 27.167C34.175 27.0667 34.012 26.9701 33.8008 26.877C33.5931 26.7803 33.3245 26.68 32.9951 26.5762C32.6299 26.4616 32.2897 26.3327 31.9746 26.1895C31.6595 26.0462 31.382 25.8797 31.1421 25.6899C30.9058 25.5002 30.7214 25.2817 30.5889 25.0347C30.4564 24.784 30.3901 24.494 30.3901 24.1646C30.3901 23.8423 30.4582 23.5487 30.5942 23.2837C30.7339 23.0187 30.9308 22.7913 31.1851 22.6016C31.4393 22.4082 31.7383 22.2596 32.082 22.1558C32.4294 22.0519 32.8125 22 33.2314 22C33.8115 22 34.3128 22.1056 34.7354 22.3169C35.1615 22.5282 35.4909 22.8146 35.7236 23.1763C35.9564 23.5379 36.0728 23.9443 36.0728 24.3955H34.6011C34.6011 24.152 34.5492 23.9372 34.4453 23.751C34.3451 23.5648 34.1911 23.418 33.9834 23.3105C33.7793 23.2031 33.5215 23.1494 33.21 23.1494C32.9092 23.1494 32.6585 23.1942 32.458 23.2837C32.2611 23.3732 32.1125 23.495 32.0122 23.6489C31.9155 23.8029 31.8672 23.9748 31.8672 24.1646C31.8672 24.3078 31.9012 24.4367 31.9692 24.5513C32.0373 24.6623 32.1393 24.7679 32.2754 24.8682C32.4115 24.9648 32.5798 25.0562 32.7803 25.1421C32.9844 25.2244 33.2207 25.3068 33.4893 25.3892C33.9189 25.5181 34.2949 25.6613 34.6172 25.8188C34.943 25.9764 35.2134 26.1554 35.4282 26.356C35.6466 26.5565 35.8096 26.7821 35.917 27.0327C36.028 27.2834 36.0835 27.568 36.0835 27.8867C36.0835 28.2233 36.0173 28.5241 35.8848 28.7891C35.7523 29.054 35.5625 29.2796 35.3154 29.4658C35.0684 29.652 34.7712 29.7935 34.4238 29.8901C34.0801 29.9868 33.6952 30.0352 33.269 30.0352C32.8895 30.0352 32.5135 29.985 32.1411 29.8848C31.7723 29.7809 31.4375 29.627 31.1367 29.4229C30.8359 29.2152 30.596 28.9538 30.417 28.6387C30.238 28.32 30.1484 27.9476 30.1484 27.5215H31.6309C31.6309 27.7686 31.6702 27.9798 31.749 28.1553C31.8314 28.3271 31.946 28.4686 32.0928 28.5796C32.2432 28.687 32.4186 28.7658 32.6191 28.8159C32.8197 28.866 33.0363 28.8911 33.269 28.8911C33.5698 28.8911 33.8169 28.8499 34.0103 28.7676C34.2072 28.6816 34.354 28.5635 34.4507 28.4131C34.5509 28.2627 34.6011 28.0908 34.6011 27.8975Z" fill="white"/>
</svg>
