<svg width="42" height="42" viewBox="0 0 42 42" fill="none" xmlns="http://www.w3.org/2000/svg">
<path d="M3.5 4.78524C3.5 4.04193 4.05431 3.5 4.66417 3.5H23.7929L32.4995 12.2071L32.5 37.1865C32.5 37.9557 31.9405 38.5 31.3443 38.5H4.65567C4.05574 38.5 3.5 37.9443 3.5 37.2148V4.78524Z" fill="white" stroke="#333333"/>
<path d="M23 13V3L33 13H23Z" fill="#333333"/>
<rect width="25" height="12" transform="translate(14 20)" fill="#333333"/>
<path d="M19.1001 29.9995H17.3975L17.4082 28.7427H19.1001C19.5226 28.7427 19.8789 28.6478 20.1689 28.458C20.459 28.2646 20.6774 27.9836 20.8242 27.6147C20.9746 27.2459 21.0498 26.8001 21.0498 26.2773V25.896C21.0498 25.495 21.0068 25.1423 20.9209 24.8379C20.8385 24.5335 20.715 24.2775 20.5503 24.0698C20.3856 23.8621 20.1833 23.7064 19.9434 23.6025C19.7035 23.4951 19.4277 23.4414 19.1162 23.4414H17.3652V22.1792H19.1162C19.639 22.1792 20.117 22.2687 20.5503 22.4478C20.9871 22.6232 21.3649 22.8757 21.6836 23.2051C22.0023 23.5345 22.2476 23.9284 22.4194 24.3867C22.5949 24.8415 22.6826 25.3481 22.6826 25.9067V26.2773C22.6826 26.8324 22.5949 27.339 22.4194 27.7974C22.2476 28.2557 22.0023 28.6496 21.6836 28.979C21.3685 29.3049 20.9907 29.5573 20.5503 29.7363C20.1134 29.9118 19.63 29.9995 19.1001 29.9995ZM18.3105 22.1792V29.9995H16.6992V22.1792H18.3105Z" fill="white"/>
<path d="M30.2773 25.9067V26.2773C30.2773 26.8717 30.1968 27.4053 30.0356 27.8779C29.8745 28.3506 29.6471 28.7534 29.3535 29.0864C29.0599 29.4159 28.709 29.6683 28.3008 29.8438C27.8962 30.0192 27.4468 30.1069 26.9526 30.1069C26.4621 30.1069 26.0127 30.0192 25.6045 29.8438C25.1999 29.6683 24.849 29.4159 24.5518 29.0864C24.2546 28.7534 24.0236 28.3506 23.8589 27.8779C23.6978 27.4053 23.6172 26.8717 23.6172 26.2773V25.9067C23.6172 25.3088 23.6978 24.7752 23.8589 24.3062C24.02 23.8335 24.2474 23.4307 24.541 23.0977C24.8382 22.7646 25.1891 22.5104 25.5938 22.335C26.002 22.1595 26.4513 22.0718 26.9419 22.0718C27.436 22.0718 27.8854 22.1595 28.29 22.335C28.6982 22.5104 29.0492 22.7646 29.3428 23.0977C29.64 23.4307 29.8691 23.8335 30.0303 24.3062C30.195 24.7752 30.2773 25.3088 30.2773 25.9067ZM28.6499 26.2773V25.896C28.6499 25.4806 28.6123 25.1154 28.5371 24.8003C28.4619 24.4852 28.3509 24.2202 28.2041 24.0054C28.0573 23.7905 27.8783 23.6294 27.667 23.522C27.4557 23.411 27.214 23.3555 26.9419 23.3555C26.6698 23.3555 26.4281 23.411 26.2168 23.522C26.0091 23.6294 25.8319 23.7905 25.6851 24.0054C25.5418 24.2202 25.4326 24.4852 25.3574 24.8003C25.2822 25.1154 25.2446 25.4806 25.2446 25.896V26.2773C25.2446 26.6891 25.2822 27.0544 25.3574 27.373C25.4326 27.6882 25.5436 27.9549 25.6904 28.1733C25.8372 28.3882 26.0163 28.5511 26.2275 28.6621C26.4388 28.7731 26.6805 28.8286 26.9526 28.8286C27.2248 28.8286 27.4665 28.7731 27.6777 28.6621C27.889 28.5511 28.0662 28.3882 28.2095 28.1733C28.3527 27.9549 28.4619 27.6882 28.5371 27.373C28.6123 27.0544 28.6499 26.6891 28.6499 26.2773Z" fill="white"/>
<path d="M35.9707 27.4053H37.5767C37.5444 27.9316 37.3994 28.3989 37.1416 28.8071C36.8874 29.2153 36.5311 29.534 36.0728 29.7632C35.618 29.9924 35.0702 30.1069 34.4292 30.1069C33.9279 30.1069 33.4785 30.021 33.0811 29.8491C32.6836 29.6737 32.3434 29.423 32.0605 29.0972C31.7812 28.7713 31.5682 28.3774 31.4214 27.9155C31.2746 27.4536 31.2012 26.9362 31.2012 26.3633V25.8208C31.2012 25.2479 31.2764 24.7305 31.4268 24.2686C31.5807 23.8031 31.7992 23.4074 32.082 23.0815C32.3685 22.7557 32.7104 22.505 33.1079 22.3296C33.5054 22.1541 33.9494 22.0664 34.4399 22.0664C35.0916 22.0664 35.6413 22.1846 36.0889 22.4209C36.54 22.6572 36.8892 22.9831 37.1362 23.3984C37.3869 23.8138 37.5373 24.2865 37.5874 24.8164H35.9761C35.9582 24.5013 35.8955 24.2345 35.7881 24.0161C35.6807 23.7941 35.5177 23.6276 35.2993 23.5166C35.0845 23.402 34.798 23.3447 34.4399 23.3447C34.1714 23.3447 33.9368 23.3949 33.7363 23.4951C33.5358 23.5954 33.3675 23.7476 33.2314 23.9517C33.0954 24.1558 32.9933 24.4136 32.9253 24.7251C32.8608 25.033 32.8286 25.3947 32.8286 25.8101V26.3633C32.8286 26.7679 32.859 27.1242 32.9199 27.4321C32.9808 27.7365 33.0739 27.9943 33.1992 28.2056C33.3281 28.4132 33.4928 28.5708 33.6934 28.6782C33.8975 28.7821 34.1427 28.834 34.4292 28.834C34.7658 28.834 35.0433 28.7803 35.2617 28.6729C35.4801 28.5654 35.6466 28.4061 35.7612 28.1948C35.8794 27.9836 35.9492 27.7204 35.9707 27.4053Z" fill="white"/>
</svg>
