<svg width="42" height="42" viewBox="0 0 42 42" fill="none" xmlns="http://www.w3.org/2000/svg">
<path d="M3.5 4.78524C3.5 4.04193 4.05431 3.5 4.66417 3.5H23.7929L32.4995 12.2071L32.5 37.1865C32.5 37.9557 31.9405 38.5 31.3443 38.5H4.65567C4.05574 38.5 3.5 37.9443 3.5 37.2148V4.78524Z" fill="white" stroke="#333333"/>
<path d="M23 13V3L33 13H23Z" fill="#333333"/>
<rect width="25" height="12" transform="translate(14 20)" fill="#333333"/>
<path d="M19.7446 27.2124H17.752V25.9556H19.7446C20.0526 25.9556 20.3032 25.9054 20.4966 25.8052C20.6899 25.7013 20.8314 25.5581 20.9209 25.3755C21.0104 25.1929 21.0552 24.987 21.0552 24.7578C21.0552 24.5251 21.0104 24.3084 20.9209 24.1079C20.8314 23.9074 20.6899 23.7463 20.4966 23.6245C20.3032 23.5028 20.0526 23.4419 19.7446 23.4419H18.3105V30H16.6992V22.1797H19.7446C20.3569 22.1797 20.8815 22.2907 21.3184 22.5127C21.7588 22.7311 22.0954 23.0337 22.3281 23.4204C22.5609 23.8071 22.6772 24.2493 22.6772 24.7471C22.6772 25.252 22.5609 25.6888 22.3281 26.0576C22.0954 26.4264 21.7588 26.7111 21.3184 26.9116C20.8815 27.1121 20.3569 27.2124 19.7446 27.2124Z" fill="white"/>
<path d="M26.8345 27.2124H24.8418V25.9556H26.8345C27.1424 25.9556 27.3931 25.9054 27.5864 25.8052C27.7798 25.7013 27.9212 25.5581 28.0107 25.3755C28.1003 25.1929 28.145 24.987 28.145 24.7578C28.145 24.5251 28.1003 24.3084 28.0107 24.1079C27.9212 23.9074 27.7798 23.7463 27.5864 23.6245C27.3931 23.5028 27.1424 23.4419 26.8345 23.4419H25.4004V30H23.7891V22.1797H26.8345C27.4468 22.1797 27.9714 22.2907 28.4082 22.5127C28.8486 22.7311 29.1852 23.0337 29.418 23.4204C29.6507 23.8071 29.7671 24.2493 29.7671 24.7471C29.7671 25.252 29.6507 25.6888 29.418 26.0576C29.1852 26.4264 28.8486 26.7111 28.4082 26.9116C27.9714 27.1121 27.4468 27.2124 26.8345 27.2124Z" fill="white"/>
<path d="M34.3755 22.1797V30H32.7695V22.1797H34.3755ZM36.7817 22.1797V23.4419H30.4009V22.1797H36.7817Z" fill="white"/>
</svg>
