<svg width="24" height="24" viewBox="0 0 24 24" fill="none" xmlns="http://www.w3.org/2000/svg">
    <path d="M7.38807 7.56263C6.28081 8.71318 5.6 10.2771 5.6 12C5.6 15.5346 8.46538 18.4 12 18.4C12.8646 18.4 13.6893 18.2286 14.4417 17.9178C14.5337 17.3174 14.3318 16.7413 14.2493 16.5397C14.0656 16.092 13.4593 15.3266 12.4471 14.2646C12.177 13.9806 12.1943 13.7628 12.2909 13.1154L12.302 13.0423C12.3676 12.5989 12.4777 12.3367 13.9698 12.0998C14.7278 11.9797 14.9271 12.2826 15.2034 12.7022C15.234 12.7486 15.2646 12.7942 15.2958 12.8399C15.5583 13.2238 15.7528 13.3115 16.0466 13.4451C16.1782 13.5048 16.3424 13.5801 16.5625 13.7051C17.0841 14.0032 17.0841 14.3398 17.0841 15.0778V15.1614C17.0841 15.4747 17.0534 15.7498 17.0053 15.9887C17.8782 14.8948 18.4 13.5083 18.4 12C18.4 9.36071 16.8024 7.09456 14.5215 6.11586C14.079 6.4145 13.4718 6.83781 13.26 7.128C13.1517 7.2763 12.9986 8.03333 12.5006 8.09581C12.3701 8.11218 12.195 8.10071 12.0096 8.08878C11.5124 8.05646 10.8322 8.01285 10.6144 8.60396C10.4762 8.97856 10.4518 9.99556 10.8991 10.5234C10.9707 10.6078 10.9846 10.7638 10.9359 10.9388C10.872 11.1686 10.7429 11.3085 10.7026 11.3374C10.6255 11.293 10.4717 11.1145 10.3675 10.993C10.1164 10.7012 9.80324 10.3379 9.39838 10.2254C9.25116 10.1847 9.08933 10.1509 8.93238 10.1179C8.49312 10.0258 7.99554 9.92107 7.87994 9.67442C7.79554 9.49376 7.7959 9.24497 7.79623 8.98211C7.79623 8.64896 7.79623 8.27223 7.63303 7.90605C7.56997 7.76433 7.48551 7.65157 7.38807 7.56263ZM12 20C7.58172 20 4 16.4182 4 12C4 7.58172 7.58172 4 12 4C16.4182 4 20 7.58172 20 12C20 16.4182 16.4182 20 12 20Z" fill="#111111"/>
</svg>
