<svg width="124" height="130" viewBox="0 0 124 130" fill="none" xmlns="http://www.w3.org/2000/svg">
<g clip-path="url(#clip0_6710_8012)">
<path d="M48.1383 100.917C34.3815 87.1167 34.3815 64.7426 48.1383 50.9427C61.8951 37.1428 84.1993 37.1428 97.9561 50.9427C111.713 64.7426 111.713 87.1167 97.9561 100.917C84.1993 114.717 61.8951 114.717 48.1383 100.917Z" fill="#C6DAFA"/>
<path d="M48.1383 100.917C34.3815 87.1167 34.3815 64.7426 48.1383 50.9427C61.8951 37.1428 84.1993 37.1428 97.9561 50.9427C111.713 64.7426 111.713 87.1167 97.9561 100.917C84.1993 114.717 61.8951 114.717 48.1383 100.917Z" fill="#D0BFDA"/>
<path d="M4.96611 25.1016H30.874V66.2715H4.96611V25.1016Z" fill="#7D5A90"/>
<path d="M7.07115 27.1562H28.7688V64.2089H7.07115V27.1562Z" fill="#D0BFDA"/>
<path d="M3.99647 24.125H32.2698V25.6313H3.99647V24.125Z" fill="#7D5A90"/>
<path d="M3.99647 26.4609H32.2698V27.9673H3.99647V26.4609Z" fill="#7D5A90"/>
<path d="M3.99647 28.8047H32.2698V30.311H3.99647V28.8047Z" fill="#7D5A90"/>
<path d="M3.99647 31.1406H32.2698V32.6469H3.99647V31.1406Z" fill="#7D5A90"/>
<path d="M3.99647 33.4766H32.2698V34.9829H3.99647V33.4766Z" fill="#7D5A90"/>
<path d="M3.99647 35.8203H32.2698V37.3266H3.99647V35.8203Z" fill="#7D5A90"/>
<path d="M3.99647 38.1562H32.2698V39.6626H3.99647V38.1562Z" fill="#7D5A90"/>
<path d="M3.99647 40.4922H32.2698V41.9985H3.99647V40.4922Z" fill="#7D5A90"/>
<path d="M3.99647 42.8359H32.2698V44.3423H3.99647V42.8359Z" fill="#7D5A90"/>
<path d="M3.99658 24.125V51.4282" stroke="#7D5A90" stroke-miterlimit="10"/>
<path d="M3.47015 51.0859H4.52271V53.7457H3.47015V51.0859Z" fill="#7D5A90"/>
<path d="M25.0934 55.1094H27.6218V64.2277H25.0934V55.1094Z" fill="#7D5A90"/>
<path d="M16.2439 56.5547H18.5149V64.224H16.2439V56.5547Z" fill="#7D5A90"/>
<path d="M13.1606 58.0859H15.4316V64.2231H13.1606V58.0859Z" fill="#7D5A90"/>
<path d="M19.9222 52.9297H24.0066V64.2228H19.9222V52.9297Z" fill="#7D5A90"/>
<path d="M8.3011 52.9297H12.3855V64.2228H8.3011V52.9297Z" fill="#7D5A90"/>
<path d="M0.140884 126.304H124L116.532 122.086H7.60893L0.140884 126.304Z" fill="#7D5A90"/>
<path d="M0.346832 126.305H124V129.994H0.346832V126.305Z" fill="#3B1550"/>
<path d="M15.1342 108.992C9.5024 108.992 6.05297 110.071 5.83846 110.14C5.47521 110.257 5.27499 110.645 5.39226 111.009C5.50953 111.374 5.89852 111.572 6.25891 111.457C6.3676 111.422 14.0101 109.061 25.0677 111.474C25.4396 111.554 25.8085 111.319 25.8886 110.946C25.9687 110.573 25.7342 110.203 25.3623 110.123C21.4782 109.276 18.0201 108.992 15.137 108.992H15.1342Z" fill="#3B1550"/>
<path d="M19.1499 104.54C19.0498 104.351 17.1334 97.5076 18.1488 97.413C19.1613 97.3183 18.7123 97.9409 19.2672 98.4028C19.822 98.8648 20.9862 92.0074 21.5239 93.2268C22.0616 94.4462 21.0634 95.9124 21.8328 95.5824C22.6022 95.2525 23.9865 88.9116 24.9733 89.5084C25.9601 90.1051 24.5328 92.3288 25.368 92.4005C26.2032 92.4722 30.7996 90.3576 31.3945 93.2182C31.9894 96.0788 25.6884 96.5436 25.062 97.3326C24.4327 98.1216 28.1939 98.4803 26.3176 99.1919C24.4442 99.9063 21.2722 100.824 22.4449 101.12C22.6937 101.183 26.0917 99.8059 25.9143 102.248C25.8285 103.43 19.1528 104.54 19.1528 104.54H19.1499Z" fill="#2BA167"/>
<path d="M19.1355 105.3C19.1355 105.3 20.2882 96.2108 25.2793 94.8594" stroke="#1D402F" stroke-miterlimit="10" stroke-linecap="round"/>
<path d="M15.5974 111.937C10.3008 111.937 6.00709 111.351 6.00709 110.629C6.00709 109.906 10.3008 109.32 15.5974 109.32C20.894 109.32 25.1877 109.906 25.1877 110.629C25.1877 111.351 20.894 111.937 15.5974 111.937Z" fill="#0C0012"/>
<path d="M15.8806 110.271C15.6976 110.16 10.5749 105.25 11.3987 104.651C12.2224 104.051 12.1538 104.817 12.8631 104.929C13.5724 105.044 11.0926 98.548 12.1767 99.3226C13.2578 100.097 13.1434 101.87 13.6382 101.193C14.133 100.516 12.1023 94.3503 13.255 94.3618C14.4076 94.3704 14.3104 97.0129 15.0626 96.6486C15.8177 96.2842 18.698 92.1152 20.6629 94.2729C22.6279 96.4305 17.4423 100.049 17.3022 101.05C17.162 102.048 20.5771 100.436 19.3301 102.008C18.0802 103.581 15.8177 105.994 16.979 105.646C17.2249 105.572 19.4473 102.651 20.5371 104.843C21.0634 105.905 15.8835 110.271 15.8835 110.271H15.8806Z" fill="#2BA167"/>
<path d="M16.261 112.373C16.261 112.373 12.6256 102.52 16.2352 98.8047" stroke="#1D402F" stroke-miterlimit="10" stroke-linecap="round"/>
<path d="M14.1875 113.225C14.2504 113.018 14.8539 105.937 13.8414 106.035C12.8289 106.132 13.3866 106.66 12.929 107.217C12.4713 107.773 10.0459 101.258 9.74554 102.557C9.44522 103.857 10.7009 105.111 9.88283 104.93C9.06481 104.749 6.51921 98.7814 5.66115 99.5532C4.80308 100.325 6.61931 102.242 5.81559 102.468C5.00901 102.695 0.0980148 101.484 0.0493908 104.405C0.000766754 107.326 6.27609 106.597 7.03977 107.254C7.80345 107.911 4.17955 108.97 6.1531 109.317C8.12666 109.667 11.4159 109.974 10.3176 110.485C10.0831 110.594 6.4906 109.879 7.11985 112.244C7.42304 113.388 14.1903 113.222 14.1903 113.222L14.1875 113.225Z" fill="#2BA167"/>
<path d="M15.2915 115.048C15.2915 115.048 11.516 105.25 6.35903 104.859" stroke="#1D402F" stroke-miterlimit="10" stroke-linecap="round"/>
<path d="M13.4722 104.932C13.5666 104.74 15.2913 97.8454 14.276 97.7795C13.2606 97.7135 13.7268 98.3217 13.1862 98.798C12.6456 99.2743 11.2899 92.4514 10.7865 93.688C10.2831 94.9217 11.3213 96.3621 10.5434 96.0522C9.76538 95.7423 8.2037 89.4416 7.23409 90.0671C6.26447 90.6926 7.75178 92.876 6.91946 92.9707C6.08714 93.0654 1.43355 91.0799 0.918709 93.9577C0.403869 96.8326 6.71352 97.1224 7.36279 97.8913C8.01206 98.6632 4.26517 99.1251 6.15864 99.785C8.05211 100.448 11.2498 101.277 10.0829 101.604C9.83403 101.673 6.40176 100.39 6.64488 102.826C6.76215 104.006 13.4665 104.927 13.4665 104.927L13.4722 104.932Z" fill="#2BA167"/>
<path d="M14.2676 106.921C14.2676 106.921 12.1052 96.6434 7.07697 95.4297" stroke="#1D402F" stroke-miterlimit="10" stroke-linecap="round"/>
<path d="M17.3109 112.099C17.2422 111.896 16.4299 104.835 17.4453 104.903C18.4607 104.972 17.9201 105.515 18.392 106.057C18.8668 106.599 21.0978 100.014 21.4382 101.305C21.7757 102.597 20.5572 103.885 21.3695 103.681C22.1818 103.477 24.5501 97.435 25.431 98.1809C26.312 98.9269 24.5501 100.895 25.3624 101.099C26.1747 101.303 31.0456 99.9455 31.1829 102.863C31.3174 105.781 25.0249 105.239 24.2812 105.919C23.5376 106.599 27.1901 107.549 25.228 107.956C23.2658 108.364 19.988 108.768 21.1006 109.247C21.338 109.348 24.9076 108.527 24.3499 110.912C24.0781 112.065 17.3109 112.099 17.3109 112.099Z" fill="#2BA167"/>
<path d="M17.1734 112.849C17.1734 112.849 19.7448 104.058 24.8875 103.516" stroke="#1D402F" stroke-miterlimit="10" stroke-linecap="round"/>
<path d="M9.48816 124.048L9.9086 124.148C13.7442 125.055 17.9086 125.09 21.7785 124.249L25.2051 110.672C19.19 112.026 12.7116 112.075 6.65653 110.807L6.01584 110.672L9.49101 124.051L9.48816 124.048Z" fill="#3B1550"/>
<path d="M24.7558 112.433C23.4773 112.761 20.4426 113.395 16.1294 113.395C13.3836 113.395 10.1144 113.131 6.45614 112.376L6.07287 110.898C6.11292 110.898 6.15582 110.904 6.19872 110.913C17.2563 113.326 24.8989 110.964 25.0075 110.93C25.0533 110.916 25.0991 110.907 25.1477 110.901L24.7616 112.436L24.7558 112.433Z" fill="#190624"/>
<path d="M16.1296 112.794C21.7613 112.794 25.2108 111.716 25.4253 111.647C25.7885 111.529 25.9888 111.142 25.8715 110.777C25.7542 110.413 25.3652 110.215 25.0049 110.33C24.8962 110.364 17.2536 112.726 6.19602 110.313C5.82419 110.232 5.45522 110.468 5.37514 110.841C5.29505 111.214 5.52959 111.584 5.90142 111.664C9.7856 112.51 13.2436 112.794 16.1267 112.794H16.1296Z" fill="#3B1550"/>
<path d="M50.8755 119.371L108.586 120.86L122.813 81.3826L65.0994 79.8906L50.8755 119.371Z" fill="#424242"/>
<path d="M23.9093 122.509L81.6201 123.998L108.589 120.773L50.8784 119.281L23.9093 122.509Z" fill="#333333"/>
<path d="M53.6756 117.097L106.75 118.468L119.401 83.3324L66.3263 81.9609L53.6756 117.097Z" fill="#7D5A91"/>
<path d="M108.589 120.773L81.6201 123.998L81.5371 127.252L108.4 123.588L108.589 120.773Z" fill="#1A1A1A"/>
<path d="M81.6201 123.997L23.9094 122.508L23.8465 124.947L81.5372 127.251L81.6201 123.997Z" fill="black"/>
<path d="M67.6048 83.166L55.3717 117.14L53.6756 117.097L66.3263 81.9609L119.401 83.3324L118.983 84.4944L67.6048 83.166Z" fill="#2F0347"/>
<path d="M122.813 81.3828L123.162 81.8448L108.4 123.589L108.589 120.774L122.813 81.3828Z" fill="black"/>
<path d="M53.3266 122.14L66.9041 122.493L73.248 121.733L59.6706 121.383L53.3266 122.14Z" fill="#424242"/>
<path d="M50.8755 0.140625V26.1555" stroke="#424242" stroke-miterlimit="10" stroke-linecap="round"/>
<path d="M60.5374 39.8018H40.6845L50.7954 28.6406L60.5374 39.8018Z" fill="#7D5A90"/>
<path d="M48.2585 24.4609H53.1609V31.7372H48.2585V24.4609Z" fill="#7D5A90"/>
<path d="M53.1609 31.3594L48.2642 31.3967L53.916 32.2259L53.1609 31.3594Z" fill="#4D305E"/>
<path d="M73.8516 35.3408C73.8516 35.3408 71.798 44.6714 75.0529 43.6758C78.3107 42.6774 78.5996 35.2031 78.5996 35.2031L73.8516 35.3408Z" fill="#1A1A1A"/>
<path d="M69.6357 86.0659C68.4087 90.0685 67.0215 93.8041 65.743 95.9302C63.9611 101.402 61.6672 102.406 61.6672 102.406L57.5856 100.92C56.9421 100.653 56.8877 99.511 57.045 98.8797L60.7147 80.0234L60.7748 80.0464" fill="#FCBC76"/>
<path d="M60.7717 80.0479L66.2291 63.048C76.7061 61.3523 72.9248 72.6827 72.9248 72.6827C72.3871 75.9278 71.1315 81.1984 69.6356 86.0703" fill="white"/>
<path d="M58.8697 79.5576C58.8697 79.5576 66.1376 78.2148 69.5298 83.5286L68.0024 87.5454L67.5276 87.5626C64.0324 87.6831 60.5944 86.6531 57.7428 84.6275L58.8697 79.5605V79.5576Z" fill="white"/>
<path d="M59.6135 81.0105C59.6135 81.0105 61.0093 82.3762 63.5577 83.1624C66.1062 83.9456 68.8835 83.9543 68.6861 83.3374C68.4887 82.7205 68.3629 82.9357 68.3629 82.9357L67.9768 83.5813C67.9768 83.5813 62.5223 83.0849 60.114 81.0937L60.2542 80.1641C60.2542 80.1641 59.7965 80.2014 59.6135 81.0133V81.0105Z" fill="#ADADAD"/>
<path d="M99.0129 62.7085L81.414 57.9141L66.2291 63.0729L99.0129 62.7085Z" fill="white"/>
<path d="M65.0478 117.381L65.1164 107.186L64.5844 90.5852C64.1382 84.3275 65.3738 68.1108 68.8175 62.8717L77.444 59.8505L78.3249 61.3568L79.735 62.2376L86.1677 59.2422L98.1377 62.5331L95.1917 118.161L65.0506 117.383L65.0478 117.381Z" fill="white"/>
<path d="M78.9942 63.3906C78.5452 65.6975 78.1276 68.0129 77.7329 70.3312C77.3639 72.6524 77.0264 74.9793 76.7032 77.309C76.0682 81.9686 75.5963 86.6511 75.1615 91.3336C74.8183 96.0248 74.5323 100.724 74.435 105.43C74.435 107.786 74.3864 110.135 74.4665 112.488C74.518 114.841 74.5151 115.294 74.6581 117.638H74.8097C74.6181 112.947 74.7239 110.138 74.8669 105.444C75.0471 100.75 75.3303 96.0621 75.7164 91.3795C76.1083 86.6999 76.5802 82.026 77.1322 77.3607C77.69 72.6983 78.3106 68.0387 79.0486 63.4021L78.9942 63.3935V63.3906Z" fill="#ADADAD"/>
<path d="M80.7247 65.3278C80.8706 65.3278 81.0164 65.2704 81.1165 65.1671C81.2252 65.0696 81.2882 64.9261 81.291 64.7798C81.291 64.6277 81.2338 64.4871 81.1308 64.381C80.9278 64.1715 80.5559 64.1629 80.3471 64.3666C80.2385 64.4699 80.1812 64.6105 80.1784 64.7597C80.1784 64.906 80.2299 65.0524 80.3328 65.1528C80.4358 65.2618 80.5731 65.3249 80.7247 65.3278Z" fill="#ADADAD"/>
<path d="M76.4229 112.077C76.7289 112.083 76.9835 111.831 76.9835 111.524C76.9892 111.217 76.7433 110.967 76.4372 110.961C76.1254 110.956 75.8766 111.208 75.8709 111.515C75.8709 111.822 76.1111 112.072 76.4172 112.077H76.4229ZM77.2924 102.156C77.3096 101.849 77.075 101.582 76.7633 101.57C76.4572 101.553 76.1969 101.789 76.1798 102.096C76.1626 102.403 76.3972 102.669 76.7089 102.681C76.7089 102.681 76.7204 102.687 76.7261 102.687C77.0264 102.692 77.2752 102.457 77.2924 102.156ZM77.9245 92.7994C77.9474 92.4924 77.7243 92.2198 77.4125 92.194C77.1065 92.171 76.8405 92.4005 76.8119 92.7075C76.789 93.0146 77.0178 93.2814 77.3239 93.3101C77.3239 93.3101 77.3468 93.3101 77.3582 93.3101C77.6471 93.3158 77.8959 93.0978 77.9245 92.8022V92.7994ZM78.8198 83.4602C78.8541 83.1532 78.631 82.8748 78.325 82.8433C78.0189 82.8089 77.7415 83.0327 77.7157 83.3397C77.6814 83.6467 77.8988 83.9192 78.2048 83.9508C78.222 83.9565 78.2391 83.9565 78.2563 83.9565C78.5395 83.9623 78.7883 83.75 78.8226 83.4602H78.8198ZM79.9381 74.141C79.9782 73.834 79.7608 73.55 79.4547 73.5127C79.1544 73.4725 78.8741 73.6848 78.8341 73.9918C78.794 74.2988 79.0057 74.58 79.3117 74.6202C79.3346 74.6202 79.3575 74.6202 79.3775 74.6202C79.655 74.6259 79.8981 74.4222 79.9381 74.1382V74.141Z" fill="#ADADAD"/>
<path d="M84.0083 62.6682L86.0047 59.3486L87.2747 48.5231L80.5531 46.6094L77.0436 61.3168C76.7204 63.7815 82.1263 64.2864 84.0083 62.6682Z" fill="#FCBC76"/>
<path d="M79.5062 57.5238C78.9942 57.4492 78.5166 57.2684 78.0818 57.0159L80.5502 46.6094L87.2717 48.5231L86.6711 53.636L86.5224 53.8684L82.5152 56.7577C81.6199 57.4033 80.5502 57.673 79.5034 57.5209L79.5062 57.5238Z" fill="#E3923C"/>
<path d="M78.159 56.7122C76.2941 56.543 74.7582 55.0825 74.352 53.0885L73.1336 47.1292C72.9648 46.2971 72.942 45.4421 73.0735 44.6043C73.5626 41.4941 74.2319 38.1658 74.9384 36.4013L75.0442 35.5463C76.3342 32.3184 79.4347 32.2955 82.6209 32.5824C86.119 32.898 87.2145 35.5635 87.5834 39.3824L89.5455 41.3506C89.7143 43.075 89.3511 44.8223 88.5159 46.3172L85.5927 51.9867C85.4354 52.2908 85.218 52.5548 84.9492 52.7671L81.1222 55.7826C80.2641 56.477 79.2087 56.8069 78.1561 56.7122H78.159Z" fill="#FCBC76"/>
<path d="M87.7236 47.5616C87.7236 47.5616 86.385 41.3727 86.8283 38.8048C86.8283 38.8048 74.6066 42.0757 73.4625 36.0131C73.4625 36.0131 72.184 31.8327 76.4886 31.87C80.9048 31.9073 90.3435 30.642 90.1748 38.2568C89.9603 48.0063 87.7236 47.5616 87.7236 47.5616Z" fill="#1A1A1A"/>
<path d="M86.1419 45.767C85.2953 46.9663 85.3525 48.4641 86.2677 49.1154C87.183 49.7667 88.6131 49.3248 89.4598 48.1255C90.3064 46.9262 90.2492 45.4285 89.3339 44.7771C88.4186 44.1258 86.9885 44.5677 86.1419 45.767Z" fill="#FCBC76"/>
<g style="mix-blend-mode:multiply" opacity="0.67">
<path d="M88.7161 59.9219L82.7239 66.7678L79.0199 63.3965L88.7161 59.9219Z" fill="#707070"/>
</g>
<g style="mix-blend-mode:multiply" opacity="0.67">
<path d="M75.0356 60.3281L76.7747 65.0594L75.9023 65.0795L75.0356 60.3281Z" fill="#707070"/>
</g>
<g style="mix-blend-mode:multiply" opacity="0.67">
<path d="M79.0199 63.3906L81.105 66.4406L78.8025 64.1682L76.583 65.465L79.0199 63.3906Z" fill="#707070"/>
</g>
<path d="M77.9446 57.5938L76.606 57.6224L77.4841 59.9034L77.9446 57.5938Z" fill="#ADADAD"/>
<path d="M76.606 57.6172L75.0357 60.3257L76.5173 65.5103L79.02 63.39L76.606 57.6172Z" fill="white"/>
<path d="M86.2621 57.0078L87.6235 57.0279C87.4691 57.1226 86.162 58.0551 86.162 58.0551L86.2621 57.0078Z" fill="#ADADAD"/>
<path d="M87.6236 57.0234L88.7734 59.973L81.1052 66.443L79.0201 63.393L86.2479 57.9846" fill="white"/>
<g style="mix-blend-mode:multiply" opacity="0.42">
<path d="M70.4278 98.4045L94.9914 97.8335C95.0944 91.7107 94.8627 77.3762 96.4044 70.955C96.4044 70.955 97.3425 63.4693 100.003 64.1894L103.28 85.6883L103.355 108.903L100.769 104.834C98.8184 107.411 93.2867 110.779 90.1033 110.464C73.3224 108.8 65.0821 103.004 65.0821 103.004L70.4336 98.4045H70.4278Z" fill="#707070"/>
</g>
<path d="M98.9358 63.5781C98.5983 63.7732 98.5039 64.1376 98.378 64.4475C98.2722 64.7717 98.1835 65.1017 98.1149 65.4345C97.9947 66.103 97.9318 66.7715 97.8775 67.44C97.8203 68.1086 97.8317 68.78 97.8432 69.4456C97.8489 70.1141 97.8689 70.7798 97.9032 71.4454C97.9547 72.1111 98.0262 72.771 98.0977 73.4338C98.1692 74.0937 98.2264 74.7565 98.3523 75.4106C98.4638 76.0677 98.5668 76.7219 98.6984 77.376C98.8528 78.0245 98.9787 78.6787 99.1617 79.3214L99.2161 79.3156C99.0673 77.9987 98.9043 76.6874 98.7813 75.3676C98.6469 74.0507 98.5382 72.7308 98.4581 71.411C98.358 70.0912 98.3122 68.7685 98.3122 67.4458C98.3208 66.7859 98.338 66.1231 98.4095 65.466C98.4409 65.1361 98.4924 64.8119 98.5611 64.4905C98.604 64.3327 98.6383 64.1692 98.7012 64.02C98.7527 63.8708 98.8385 63.7072 98.9501 63.6326L98.9358 63.5781Z" fill="#ADADAD"/>
<path d="M95.3862 85.0657L95.3004 83.7344C95.3376 84.1676 95.3633 84.6124 95.3862 85.0657Z" fill="#ADADAD"/>
<path d="M96.3502 87.5095C96.682 84.2386 94.6255 76.8878 96.4332 69.3533C96.4332 69.3533 94.0248 60.9581 100.872 63.0439C102.843 63.6436 105.623 73.2755 105.955 77.1001L106.641 87.1652C106.973 89.779 106.381 90.832 106.124 93.4516" fill="white"/>
<path d="M106.124 93.4528L104.605 107.388C104.476 108.154 103.898 109.397 103.126 109.417L91.831 108.892C91.831 108.892 95.658 94.325 96.3502 87.5078" fill="#FCBC76"/>
<path d="M99.9226 104.719L96.1271 96.2031L70.4566 96.7999L70.2449 105.278C70.2449 105.278 101.73 113.926 99.9226 104.719Z" fill="#FCBC76"/>
<path d="M88.2786 96.3917L90.8328 96.0703C90.8328 96.0703 71.3604 105.854 70.1076 105.283C67.4933 104.09 64.9191 102.575 64.9191 102.575L70.4594 96.8077L88.2786 96.3945V96.3917Z" fill="#E3923C"/>
<path d="M88.4044 92.1016C88.4044 92.1016 90.6411 92.1417 91.5049 92.3053C92.3687 92.466 94.8628 96.2418 94.8628 96.2418L89.8517 96.3738L88.4044 92.1016Z" fill="#FCBC76"/>
<path d="M60.2113 99.7678L61.6815 91.625L88.4045 92.1041L90.6755 96.2587C90.6755 96.2587 58.5981 108.464 60.2113 99.7678Z" fill="#FCBC76"/>
<path d="M94.6426 86.2788C94.6426 86.2788 103.584 83.0883 108.967 89.1337L107.848 94.5392L107.248 94.6568C102.843 95.5262 98.275 94.9208 94.2421 92.9382L94.6397 86.2817L94.6426 86.2788Z" fill="white"/>
<path d="M95.8781 87.9707C95.8781 87.9707 97.9232 89.4196 101.315 89.8902C104.705 90.3636 108.229 89.8041 107.854 89.061C107.479 88.3179 107.362 88.6191 107.362 88.6191L107.004 89.5172C107.004 89.5172 99.9883 90.0049 96.5274 87.9736L96.516 86.7656C96.516 86.7656 95.941 86.9062 95.8753 87.9707H95.8781Z" fill="#ADADAD"/>
<path d="M66.4036 73.5703C66.0575 74.6893 65.8001 75.8456 65.5741 77.0191C65.4511 77.6015 65.3625 78.1983 65.2566 78.7894C65.1623 79.3862 65.0764 79.9829 64.9878 80.5826C64.9134 81.188 64.8333 81.7905 64.7675 82.3959C64.7103 83.0071 64.636 83.6125 64.5931 84.2322C64.493 85.4631 64.4243 86.7112 64.4386 87.9966L64.4901 88.0195L65.4969 80.8179L66.4551 73.5933L66.4036 73.5703Z" fill="#ADADAD"/>
<path d="M71.5605 91.801C71.5605 91.801 65.9888 87.8444 62.4851 87.7812L58.5894 90.7566L59.0671 96.5237L63.1887 92.1797L71.5605 91.8038V91.801Z" fill="#FCBC76"/>
<path d="M98.1349 62.5391C97.5428 63.3482 97.0795 64.2348 96.7048 65.1529C96.3187 66.0682 96.0241 67.0179 95.7752 67.979C95.5578 68.946 95.3548 69.9186 95.2833 70.9114C95.2346 71.4049 95.2175 71.9012 95.1917 72.3947C95.2032 72.894 95.2032 73.3875 95.2518 73.8838L95.3061 73.8896C95.412 72.9169 95.535 71.9471 95.7066 70.9831C95.8639 70.019 96.0841 69.0636 96.3129 68.1139C96.5446 67.1642 96.8106 66.2231 97.1167 65.2935C97.4256 64.3667 97.7659 63.4457 98.1807 62.5649L98.132 62.5391H98.1349Z" fill="#ADADAD"/>
<path d="M100.929 64.8807L101.124 70.8917C101.181 72.8915 101.253 74.8885 101.235 76.8854C101.27 78.8795 101.221 80.8765 101.087 82.8533C101.021 83.8432 100.921 84.8302 100.741 85.7914C100.572 86.7526 100.317 87.7109 99.8025 88.4769L99.8282 88.5114C100.406 87.7912 100.706 86.8128 100.927 85.8545C101.144 84.8847 101.273 83.8891 101.37 82.8906C101.562 80.8937 101.607 78.8824 101.602 76.8768C101.59 74.8684 101.519 72.8657 101.41 70.863C101.298 68.8632 101.158 66.8662 100.967 64.875L100.929 64.8807Z" fill="#ADADAD"/>
<path d="M89.0938 46.1908C89.0938 46.1908 87.7151 45.7805 87.2174 47.3069" stroke="#E3923C" stroke-miterlimit="10" stroke-linecap="round"/>
<path d="M88.4043 47.2375L87.8466 46.4141" stroke="#E3923C" stroke-miterlimit="10" stroke-linecap="round"/>
<path d="M68.6174 68.3651C70.1362 61.7976 75.2388 59.9096 75.2903 59.8896L75.562 59.4219C75.4876 59.4362 69.8559 61.5537 68.297 68.2905L68.6174 68.3651Z" fill="#3B1550"/>
<path d="M68.6803 74.1794C69.4354 74.079 70.1132 73.7031 70.6023 73.1121C71.1143 72.4923 71.3546 71.7091 71.2802 70.9057C71.1801 69.8527 70.5251 68.9145 69.5641 68.4611C69.4897 68.4267 69.4039 68.4497 69.3581 68.5185C69.3124 68.5874 69.3238 68.6763 69.3839 68.7308C69.873 69.1813 70.179 69.7953 70.2419 70.4552C70.3792 71.93 69.2952 73.2412 67.8251 73.3818C67.3503 73.4277 66.8697 73.3416 66.435 73.135C66.3606 73.1006 66.2748 73.1236 66.2291 73.1924C66.1833 73.2613 66.1947 73.3502 66.2548 73.4047C66.8812 73.9814 67.7249 74.2684 68.5687 74.188C68.6059 74.1852 68.6431 74.1794 68.6803 74.1766V74.1794Z" fill="#C9C9C9"/>
<path d="M68.6803 74.1794C69.4354 74.079 70.1132 73.7031 70.6023 73.1121C71.1143 72.4923 71.3546 71.7091 71.2802 70.9057C71.1801 69.8527 70.5251 68.9145 69.5641 68.4611C69.4897 68.4267 69.4039 68.4497 69.3581 68.5185C69.3124 68.5874 69.3238 68.6763 69.3839 68.7308C69.873 69.1813 70.179 69.7953 70.2419 70.4552C70.3792 71.93 69.2952 73.2412 67.8251 73.3818C67.3503 73.4277 66.8697 73.3416 66.435 73.135C66.3606 73.1006 66.2748 73.1236 66.2291 73.1924C66.1833 73.2613 66.1947 73.3502 66.2548 73.4047C66.8812 73.9814 67.7249 74.2684 68.5687 74.188C68.6059 74.1852 68.6431 74.1794 68.6803 74.1766V74.1794Z" fill="#12021C"/>
<path d="M68.2742 73.9371C69.8673 73.7277 71.0257 72.2816 70.8741 70.6634C70.7197 69.0079 69.2495 67.7856 67.5992 67.9434C65.9488 68.0955 64.7304 69.5731 64.8877 71.2286C65.0421 72.8841 66.5123 74.1064 68.1626 73.9486C68.1998 73.9457 68.237 73.94 68.2742 73.9371Z" fill="#3B1550"/>
<path d="M68.1683 73.1427C69.3382 72.9878 70.1876 71.9291 70.0761 70.7412C69.9617 69.5275 68.8834 68.6295 67.6735 68.7443C66.4608 68.8562 65.5684 69.9407 65.6828 71.1544C65.7972 72.3709 66.8755 73.2661 68.0854 73.1513C68.114 73.1513 68.1397 73.1456 68.1683 73.1427Z" fill="#7D5A90"/>
<path d="M96.619 91.2114L98.3294 91.0479C98.9987 90.9847 99.5994 90.6605 100.023 90.1383C100.446 89.6161 100.64 88.962 100.569 88.2934L99.0616 74.2201C98.8271 72.9347 97.8518 71.9965 96.5733 71.8186C95.2947 71.6407 94.0992 72.2776 93.5328 73.4425L88.1556 86.6953C87.8839 87.3638 87.9154 88.1156 88.2386 88.7583C88.5618 89.4038 89.1453 89.8744 89.8432 90.0551L91.0759 90.3736L91.1589 90.0551L89.9261 89.7366C89.3226 89.5817 88.8135 89.1686 88.5332 88.6119C88.2529 88.0524 88.2271 87.3983 88.4617 86.8187L93.8332 73.5774C94.3337 72.5531 95.392 71.9879 96.5304 72.1457C97.6659 72.3035 98.5354 73.1355 98.7384 74.2689L100.243 88.3307C100.306 88.9103 100.137 89.4813 99.7681 89.9346C99.3992 90.388 98.8786 90.6663 98.298 90.7236L96.5876 90.8872L96.619 91.2143V91.2114Z" fill="#3B1550"/>
<path d="M91.8023 90.3165C91.8338 89.8861 91.5134 89.5103 91.0844 89.4787C90.6554 89.4471 90.2807 89.7685 90.2492 90.1989C90.2177 90.6292 90.5381 91.0051 90.9671 91.0367C91.3962 91.0682 91.7708 90.7469 91.8023 90.3165Z" fill="#3B1550"/>
<path d="M97.3541 91.0587C97.3855 90.6283 97.0652 90.2525 96.6362 90.2209C96.2071 90.1893 95.8324 90.5107 95.801 90.9411C95.7695 91.3714 96.0899 91.7473 96.5189 91.7789C96.9479 91.8104 97.3226 91.4891 97.3541 91.0587Z" fill="#3B1550"/>
<path d="M99.0559 76.8469L99.3391 76.6834C98.4038 75.0594 97.3141 74.1901 96.0956 74.1011C94.1449 73.9605 92.6033 75.8771 92.5375 75.9575L92.7949 76.1612C92.8092 76.1411 94.2937 74.2962 96.0727 74.4282C97.1739 74.5085 98.1779 75.3234 99.0531 76.8469H99.0559Z" fill="#3B1550"/>
<path d="M97.0052 71.977C97.0166 71.868 98.0835 61.1745 88.4045 59.0312L88.5589 59.4301C97.9519 61.5074 96.6905 71.8336 96.6791 71.9369L97.0052 71.9742V71.977Z" fill="#3B1550"/>
<path d="M81.8603 44.8245C81.866 45.1717 82.0347 45.45 82.2349 45.4471C82.4352 45.4442 82.5925 45.1573 82.5839 44.8101C82.5782 44.463 82.4094 44.1847 82.2092 44.1875C82.009 44.1904 81.8545 44.4773 81.8603 44.8245Z" fill="#1A1A1A"/>
<path d="M75.193 44.4026C75.1987 44.7498 75.3675 45.0281 75.5677 45.0252C75.7679 45.0224 75.9252 44.7354 75.9167 44.3883C75.9109 44.0411 75.7422 43.7628 75.542 43.7656C75.3418 43.7685 75.1844 44.0554 75.193 44.4026Z" fill="#1A1A1A"/>
<path d="M78.1964 43.4219C78.1964 43.4219 77.4241 45.6828 76.9922 47.2293C76.5603 48.7758 79.2146 48.4975 79.2146 48.4975" stroke="#E3923C" stroke-miterlimit="10" stroke-linecap="round"/>
<path d="M82.2349 49.2734C82.2349 49.2734 81.2395 51.7438 78.7769 51.038" stroke="#E3923C" stroke-miterlimit="10" stroke-linecap="round"/>
<path d="M94.9544 96.2194C94.9544 96.2194 96.7935 96.119 97.8518 98.4516C97.8518 98.4516 95.6123 96.7014 94.9544 96.2194Z" fill="#E3923C"/>
<path d="M71.5605 91.8047L62.9398 92.1806L58.8497 96.6594L64.4615 92.8778L71.5605 91.8047Z" fill="#E3923C"/>
<path d="M64.4844 88.1264L62.2248 87.5469L58.6924 90.7317L62.2162 87.9486L64.4844 88.1264Z" fill="#E3923C"/>
<path d="M61.6527 89.6016C61.3295 89.7307 61.0577 89.9229 60.7746 90.1008C60.4943 90.2844 60.2283 90.4853 59.9565 90.6775C59.6963 90.887 59.4274 91.0878 59.1757 91.3059C58.9211 91.5239 58.6694 91.7448 58.4349 91.9887L58.4435 92.0002L60.0424 90.7951L60.8432 90.1926C61.1121 89.9975 61.3781 89.7852 61.6555 89.6159V89.6016H61.6527Z" fill="#E3923C"/>
<path d="M61.4583 91.1094C61.1351 91.2385 60.8634 91.4307 60.5802 91.6086C60.2999 91.7922 60.0339 91.9931 59.7622 92.1853C59.5019 92.3948 59.2331 92.5956 58.9814 92.8137C58.7268 93.0317 58.4751 93.2527 58.2406 93.4965L58.2491 93.508L59.848 92.303L60.6489 91.7004C60.9177 91.5053 61.1837 91.293 61.4612 91.1237V91.1094H61.4583Z" fill="#E3923C"/>
<path d="M61.3582 92.8125C61.035 92.9416 60.7633 93.1338 60.4801 93.3117C60.1998 93.4954 59.9338 93.6962 59.6621 93.8884C59.4018 94.0979 59.133 94.2987 58.8813 94.5168C58.6267 94.7349 58.375 94.9558 58.1405 95.1997L58.1491 95.2111L59.7479 94.0061L60.5488 93.4036C60.8176 93.2084 61.0836 92.9961 61.3611 92.8268V92.8125H61.3582Z" fill="#E3923C"/>
<path d="M84.2799 45.4414C84.2827 45.3926 84.2856 45.3467 84.2856 45.298C84.2942 44.0556 83.296 43.0399 82.0575 43.0313C80.819 43.0227 79.8065 44.024 79.7979 45.2664C79.7893 46.5088 80.7875 47.5245 82.026 47.5331C83.2159 47.5417 84.1969 46.6178 84.2799 45.4414Z" stroke="white" stroke-miterlimit="10" stroke-linecap="round"/>
<path d="M72.5787 44.6102C72.5701 45.8525 73.5683 46.8682 74.8068 46.8768C76.0452 46.8854 77.0578 45.8841 77.0664 44.6417C77.0749 43.3994 76.0767 42.3837 74.8382 42.3751C73.5998 42.3664 72.5872 43.3678 72.5787 44.6102Z" stroke="white" stroke-miterlimit="10" stroke-linecap="round"/>
<path d="M79.8152 44.7921C79.8152 44.7921 78.3794 43.4005 77.0665 44.6371" stroke="white" stroke-miterlimit="10" stroke-linecap="round"/>
<path d="M87.3203 44.5781L84.2856 45.2954" stroke="white" stroke-miterlimit="10" stroke-linecap="round"/>
<path d="M76.0596 41.508C76.0596 41.508 75.3073 40.6214 74.1346 41.574" stroke="#1A1A1A" stroke-miterlimit="10" stroke-linecap="round"/>
<path d="M83.7993 42.2635C83.7993 42.2635 82.9155 41.2794 81.0792 42.0569" stroke="#1A1A1A" stroke-miterlimit="10" stroke-linecap="round"/>
<path d="M83.5764 80.2378L89.3169 80.7772L89.314 78.6253L83.5736 78.0859L83.5764 80.2378Z" fill="#3B1550"/>
<path d="M94.1736 17.3203H120.43V33.4624H94.1736V17.3203Z" fill="#7D5A90"/>
<path d="M103.772 31.8093L98.421 38.3683V31.1953L103.772 31.8093Z" fill="#7D5A90"/>
<path d="M116.929 21.1875H106.633" stroke="white" stroke-miterlimit="10"/>
<path d="M116.929 23.6328H97.6744" stroke="white" stroke-miterlimit="10"/>
<path d="M116.929 26.0703H97.6744" stroke="white" stroke-miterlimit="10"/>
<path d="M116.929 28.5156H97.6744" stroke="white" stroke-miterlimit="10"/>
</g>
<defs>
<clipPath id="clip0_6710_8012">
<rect width="123.953" height="130" fill="white" transform="matrix(-1 0 0 1 124 0)"/>
</clipPath>
</defs>
</svg>
