<svg width="24" height="24" viewBox="0 0 24 24" fill="none" xmlns="http://www.w3.org/2000/svg">
<path d="M16.0238 4C18.7721 4 21 6.2619 21 9.42857C21 15.7619 14.2143 19.381 11.9524 20.7381C10.1633 19.6646 5.54394 17.176 3.69095 13.0485L2 13.0476V11.2381L3.09517 11.2389C2.97194 10.662 2.90476 10.0587 2.90476 9.42857C2.90476 6.2619 5.16667 4 7.88095 4C9.56378 4 11.0476 4.90476 11.9524 5.80952C12.8571 4.90476 14.341 4 16.0238 4ZM16.0238 5.80952C15.0504 5.80952 13.9965 6.32443 13.2319 7.08905L11.9524 8.36858L10.6729 7.08905C9.90823 6.32443 8.85439 5.80952 7.88095 5.80952C6.12486 5.80952 4.71429 7.30826 4.71429 9.42857C4.71429 10.0487 4.79603 10.6514 4.95548 11.2385L6.9163 11.2381L8.78571 8.12241L11.5 12.6462L12.3449 11.2381H16.4762V13.0476H13.3694L11.5 16.1633L8.78571 11.6395L7.94084 13.0476L5.71666 13.0482C6.43086 14.2905 7.51275 15.4616 8.91703 16.5788C9.59096 17.115 10.3098 17.6153 11.1074 18.1177C11.3775 18.2879 11.6458 18.4517 11.9524 18.6347C12.259 18.4517 12.5273 18.2879 12.7973 18.1177C13.595 17.6153 14.3138 17.115 14.9878 16.5788C17.6829 14.4346 19.1905 12.0917 19.1905 9.42857C19.1905 7.29402 17.7999 5.80952 16.0238 5.80952Z" fill="#3B1550"/>
</svg>
