<svg width="24" height="24" viewBox="0 0 24 24" fill="none" xmlns="http://www.w3.org/2000/svg">
<path d="M13.1667 9V5.66667H5.66667V19H17.3333V9.83333H14.8333V13.6829C14.8333 14.3868 14.462 15.0441 13.8438 15.4346L11.5 16.9148L9.15623 15.4346C8.538 15.0441 8.16667 14.3868 8.16667 13.6829V9H13.1667ZM19 9V19.8277C19 20.2917 18.6293 20.6667 18.1722 20.6667H4.82783C4.37079 20.6667 4 20.2967 4 19.8402V4.8265C4 4.37943 4.37392 4 4.83518 4H13.9973L19 9ZM9.83333 13.6829C9.83333 13.8082 9.906 13.9368 10.0462 14.0254L11.5 14.9436L12.9538 14.0254C13.094 13.9368 13.1667 13.8082 13.1667 13.6829V10.6667H9.83333V13.6829Z" fill="black"/>
</svg>
