<svg width="42" height="42" viewBox="0 0 42 42" fill="none" xmlns="http://www.w3.org/2000/svg">
<path d="M3.5 4.78524C3.5 4.04193 4.05431 3.5 4.66417 3.5H23.7929L32.4995 12.2071L32.5 37.1865C32.5 37.9557 31.9405 38.5 31.3443 38.5H4.65567C4.05574 38.5 3.5 37.9443 3.5 37.2148V4.78524Z" fill="white" stroke="#333333"/>
<path d="M23 13V3L33 13H23Z" fill="#333333"/>
<rect width="25" height="12" transform="translate(14 20)" fill="#333333"/>
<path d="M19.8618 27.5991V22.1797H21.4678V27.5991C21.4678 28.1219 21.3532 28.5713 21.124 28.9473C20.8949 29.3197 20.5815 29.6061 20.1841 29.8066C19.7902 30.0072 19.3462 30.1074 18.8521 30.1074C18.34 30.1074 17.887 30.0215 17.4932 29.8496C17.0993 29.6777 16.7896 29.4146 16.564 29.0601C16.3384 28.702 16.2256 28.249 16.2256 27.7012H17.8423C17.8423 27.9876 17.8817 28.215 17.9604 28.3833C18.0428 28.5516 18.1592 28.6715 18.3096 28.7432C18.46 28.8148 18.6408 28.8506 18.8521 28.8506C19.0562 28.8506 19.2334 28.8022 19.3838 28.7056C19.5342 28.6089 19.6506 28.4674 19.7329 28.2812C19.8188 28.0951 19.8618 27.8677 19.8618 27.5991Z" fill="white"/>
<path d="M25.8882 27.2124H23.8955V25.9556H25.8882C26.1961 25.9556 26.4468 25.9054 26.6401 25.8052C26.8335 25.7013 26.9749 25.5581 27.0645 25.3755C27.154 25.1929 27.1987 24.987 27.1987 24.7578C27.1987 24.5251 27.154 24.3084 27.0645 24.1079C26.9749 23.9074 26.8335 23.7463 26.6401 23.6245C26.4468 23.5028 26.1961 23.4419 25.8882 23.4419H24.4541V30H22.8428V22.1797H25.8882C26.5005 22.1797 27.0251 22.2907 27.4619 22.5127C27.9023 22.7311 28.2389 23.0337 28.4717 23.4204C28.7044 23.8071 28.8208 24.2493 28.8208 24.7471C28.8208 25.252 28.7044 25.6888 28.4717 26.0576C28.2389 26.4264 27.9023 26.7111 27.4619 26.9116C27.0251 27.1121 26.5005 27.2124 25.8882 27.2124Z" fill="white"/>
<path d="M36.1309 25.9126V29.0117C36.0091 29.1585 35.8211 29.3179 35.5669 29.4897C35.3127 29.658 34.985 29.8031 34.584 29.9248C34.1829 30.0465 33.6978 30.1074 33.1284 30.1074C32.6235 30.1074 32.1634 30.0251 31.748 29.8604C31.3327 29.6921 30.9746 29.4468 30.6738 29.1245C30.3766 28.8022 30.1475 28.4084 29.9863 27.9429C29.8252 27.4738 29.7446 26.9385 29.7446 26.3369V25.8481C29.7446 25.2466 29.8216 24.7113 29.9756 24.2422C30.1331 23.7731 30.3569 23.3774 30.647 23.0552C30.937 22.7329 31.2826 22.4876 31.6836 22.3193C32.0846 22.151 32.5304 22.0669 33.021 22.0669C33.7013 22.0669 34.2599 22.1779 34.6968 22.3999C35.1336 22.6183 35.4666 22.9227 35.6958 23.313C35.9285 23.6997 36.0718 24.1437 36.1255 24.645H34.5625C34.5231 24.38 34.4479 24.1491 34.3369 23.9521C34.2259 23.7552 34.0666 23.6012 33.8589 23.4902C33.6548 23.3792 33.3898 23.3237 33.064 23.3237C32.7954 23.3237 32.5555 23.3792 32.3442 23.4902C32.1366 23.5977 31.9611 23.757 31.8179 23.9683C31.6746 24.1795 31.5654 24.4409 31.4902 24.7524C31.415 25.064 31.3774 25.4256 31.3774 25.8374V26.3369C31.3774 26.7451 31.4168 27.1068 31.4956 27.4219C31.5744 27.7334 31.6908 27.9966 31.8447 28.2114C32.0023 28.4227 32.1956 28.582 32.4248 28.6895C32.654 28.7969 32.9207 28.8506 33.2251 28.8506C33.4793 28.8506 33.6906 28.8291 33.8589 28.7861C34.0308 28.7432 34.1686 28.6912 34.2725 28.6304C34.3799 28.5659 34.4622 28.505 34.5195 28.4478V27.062H33.0479V25.9126H36.1309Z" fill="white"/>
</svg>
