<svg width="121" height="120" viewBox="0 0 121 120" fill="none" xmlns="http://www.w3.org/2000/svg">
<path fill-rule="evenodd" clip-rule="evenodd" d="M18.5739 14.0453C17.6424 12.2509 15.4327 11.5513 13.6382 12.4827C11.8438 13.4141 11.1442 15.6239 12.0756 17.4183L15.545 24.1023C16.4764 25.8968 18.6862 26.5964 20.4806 25.665C22.2751 24.7335 22.9747 22.5238 22.0433 20.7294L18.5739 14.0453ZM14.9185 14.9492C15.3507 14.7249 15.883 14.8934 16.1073 15.3256L19.5767 22.0096C19.8011 22.4418 19.6326 22.9741 19.2004 23.1985C18.7681 23.4228 18.2359 23.2543 18.0115 22.8221L14.5421 16.138C14.3178 15.7058 14.4863 15.1736 14.9185 14.9492ZM27.7672 30.0225C23.1628 30.0225 19.4302 33.7551 19.4302 38.3595L19.4302 96.8619C19.4302 101.466 23.1628 105.199 27.7672 105.199H83.3469C87.9513 105.199 91.6839 101.466 91.6839 96.8619V87.8386C85.8694 84.4751 81.9575 78.1885 81.9575 70.9882C81.9575 63.7878 85.8694 57.5012 91.6839 54.1377V38.3595C91.6839 33.7551 87.9513 30.0225 83.3469 30.0225H77.6453V32.1302C77.6453 35.9672 74.5348 39.0777 70.6979 39.0777H43.1955C39.3585 39.0777 36.248 35.9672 36.248 32.1302V30.0225L27.7672 30.0225ZM94.4629 52.8125V38.3595C94.4629 32.2203 89.4861 27.2435 83.3469 27.2435L65.0829 27.2435C64.1393 23.6317 60.8542 20.9664 56.9467 20.9664C53.0391 20.9664 49.7541 23.6317 48.8104 27.2435H27.7672C21.628 27.2435 16.6513 32.2203 16.6513 38.3595L16.6513 96.8619C16.6513 103.001 21.628 107.978 27.7672 107.978H83.3469C89.4861 107.978 94.4629 103.001 94.4629 96.8619V89.1638C96.6205 89.989 98.9626 90.4411 101.41 90.4411C112.154 90.4411 120.863 81.7317 120.863 70.9882C120.863 60.2446 112.154 51.5352 101.41 51.5352C98.9626 51.5352 96.6205 51.9873 94.4629 52.8125ZM1.25064 24.9652C2.1549 23.1569 4.35385 22.424 6.16213 23.3283L12.8977 26.6965C14.706 27.6008 15.4388 29.7997 14.5346 31.608C13.6303 33.4163 11.4314 34.1491 9.62311 33.2449L2.88752 29.8766C1.07924 28.9724 0.346385 26.7734 1.25064 24.9652ZM4.9192 25.8138C4.48364 25.596 3.95399 25.7725 3.73618 26.2081C3.51837 26.6436 3.69489 27.1733 4.13045 27.3911L10.866 30.7593C11.3016 30.9771 11.8312 30.8006 12.0491 30.3651C12.2669 29.9295 12.0903 29.3998 11.6548 29.182L4.9192 25.8138ZM49.0886 57.9793C49.0886 56.0608 50.6439 54.5056 52.5623 54.5056L76.1837 54.5056C78.1022 54.5056 79.6575 56.0608 79.6575 57.9793C79.6575 59.8978 78.1022 61.453 76.1837 61.453L52.5623 61.453C50.6439 61.453 49.0886 59.8978 49.0886 57.9793ZM52.5623 70.7724C50.6439 70.7724 49.0886 72.3276 49.0886 74.2461C49.0886 76.1646 50.6439 77.7199 52.5623 77.7199H76.1837C78.1022 77.7199 79.6575 76.1646 79.6575 74.2461C79.6575 72.3276 78.1022 70.7724 76.1837 70.7724H52.5623ZM51.8676 74.2461C51.8676 73.8624 52.1786 73.5514 52.5623 73.5514H76.1837C76.5674 73.5514 76.8785 73.8624 76.8785 74.2461C76.8785 74.6298 76.5674 74.9409 76.1837 74.9409H52.5623C52.1786 74.9409 51.8676 74.6298 51.8676 74.2461ZM49.0886 91.2552C49.0886 89.3367 50.6439 87.7815 52.5623 87.7815H76.1837C78.1022 87.7815 79.6575 89.3367 79.6575 91.2552C79.6575 93.1737 78.1022 94.729 76.1837 94.729H52.5623C50.6439 94.729 49.0886 93.1737 49.0886 91.2552ZM52.5623 90.5605C52.1786 90.5605 51.8676 90.8715 51.8676 91.2552C51.8676 91.6389 52.1786 91.95 52.5623 91.95H76.1837C76.5674 91.95 76.8785 91.6389 76.8785 91.2552C76.8785 90.8715 76.5674 90.5605 76.1837 90.5605H52.5623ZM33.564 56.7336C33.564 54.4314 35.4303 52.5651 37.7325 52.5651H39.9365C42.2387 52.5651 44.105 54.4314 44.105 56.7336V58.9376C44.105 61.2398 42.2387 63.1061 39.9365 63.1061H37.7325C35.4303 63.1061 33.564 61.2398 33.564 58.9376V56.7336ZM37.7325 68.832C35.4303 68.832 33.564 70.6983 33.564 73.0005V75.2045C33.564 77.5067 35.4303 79.373 37.7325 79.373H39.9365C42.2387 79.373 44.105 77.5067 44.105 75.2045V73.0005C44.105 70.6983 42.2387 68.832 39.9365 68.832H37.7325ZM36.343 73.0005C36.343 72.2331 36.9651 71.611 37.7325 71.611H39.9365C40.7039 71.611 41.326 72.2331 41.326 73.0005V75.2045C41.326 75.9719 40.7039 76.594 39.9365 76.594H37.7325C36.9651 76.594 36.343 75.9719 36.343 75.2045V73.0005ZM33.564 90.0096C33.564 87.7074 35.4303 85.8411 37.7325 85.8411H39.9365C42.2387 85.8411 44.105 87.7074 44.105 90.0096V92.2136C44.105 94.5158 42.2387 96.3821 39.9365 96.3821H37.7325C35.4303 96.3821 33.564 94.5158 33.564 92.2136V90.0096ZM37.7325 88.6201C36.9651 88.6201 36.343 89.2422 36.343 90.0096V92.2136C36.343 92.981 36.9651 93.6031 37.7325 93.6031H39.9365C40.7039 93.6031 41.326 92.981 41.326 92.2136V90.0096C41.326 89.2422 40.7039 88.6201 39.9365 88.6201H37.7325ZM97.9366 61.9564C97.9366 60.038 99.4919 58.4827 101.41 58.4827C103.329 58.4827 104.884 60.038 104.884 61.9564V70.2934C104.884 72.2119 103.329 73.7671 101.41 73.7671C99.4919 73.7671 97.9366 72.2119 97.9366 70.2934V61.9564ZM101.41 83.4936C99.4919 83.4936 97.9366 81.9383 97.9366 80.0199C97.9366 78.1014 99.4919 76.5461 101.41 76.5461C103.329 76.5461 104.884 78.1014 104.884 80.0199C104.884 81.9383 103.329 83.4936 101.41 83.4936Z" fill="#3B1550"/>
<ellipse opacity="0.1" cx="60.5" cy="111.117" rx="60" ry="6" fill="#8C82AA"/>
</svg>
