<svg width="24" height="24" viewBox="0 0 24 24" fill="none" xmlns="http://www.w3.org/2000/svg">
    <path
        d="M6.66667 9.22222V8.33333C6.66667 5.38781 9.05448 3 12 3C14.9455 3 17.3333 5.38781 17.3333 8.33333V9.22222H19.1111C19.602 9.22222 20 9.6202 20 10.1111V20.7778C20 21.2687 19.602 21.6667 19.1111 21.6667H4.88889C4.39797 21.6667 4 21.2687 4 20.7778V10.1111C4 9.6202 4.39797 9.22222 4.88889 9.22222H6.66667ZM18.2222 11H5.77778V19.8889H18.2222V11ZM11.1111 16.0955C10.5797 15.7881 10.2222 15.2136 10.2222 14.5556C10.2222 13.5737 11.0181 12.7778 12 12.7778C12.9819 12.7778 13.7778 13.5737 13.7778 14.5556C13.7778 15.2136 13.4203 15.7881 12.8889 16.0955V18.1111H11.1111V16.0955ZM8.44444 9.22222H15.5556V8.33333C15.5556 6.36965 13.9636 4.77778 12 4.77778C10.0363 4.77778 8.44444 6.36965 8.44444 8.33333V9.22222Z"
        fill="black" />
</svg>
