<svg width="24" height="24" viewBox="0 0 24 24" fill="none" xmlns="http://www.w3.org/2000/svg">
    <path
        d="M16.5 8.83333H18.1667C18.6269 8.83333 19 9.20643 19 9.66667V19.6667C19 20.1269 18.6269 20.5 18.1667 20.5H4.83333C4.3731 20.5 4 20.1269 4 19.6667V9.66667C4 9.20643 4.3731 8.83333 4.83333 8.83333H6.5V8C6.5 5.23857 8.73857 3 11.5 3C14.2614 3 16.5 5.23857 16.5 8V8.83333ZM14.8333 8.83333V8C14.8333 6.15905 13.3409 4.66667 11.5 4.66667C9.65905 4.66667 8.16667 6.15905 8.16667 8V8.83333H14.8333ZM10.6667 13.8333V15.5H12.3333V13.8333H10.6667ZM7.33333 13.8333V15.5H9V13.8333H7.33333ZM14 13.8333V15.5H15.6667V13.8333H14Z"
        fill="#999999" />
</svg>
