<svg width="33" height="33" viewBox="0 0 33 33" fill="none" xmlns="http://www.w3.org/2000/svg">
    <g clip-path="url(#clip0_6614_8068)">
        <path
            d="M26.8469 0C27.3373 0.144531 27.8553 0.227849 28.3121 0.444646C30.2365 1.35604 31.2928 2.90848 31.3129 5.06369C31.3515 9.27125 31.3255 13.4797 31.3238 17.6881C31.3238 18.4711 30.7965 19.0373 30.0778 19.0433C29.3574 19.0492 28.8083 18.4643 28.8075 17.6728C28.8049 13.5281 28.8075 9.38348 28.8058 5.23968C28.8058 3.95846 28.1064 2.96544 26.9729 2.65427C26.7235 2.58541 26.4557 2.55565 26.197 2.5548C21.1383 2.54885 16.0795 2.54885 11.0207 2.5514C9.54634 2.5514 8.42543 3.61753 8.41199 5.0807C8.39016 7.49267 8.40612 9.90549 8.40696 12.3175C8.40696 12.3489 8.41535 12.3804 8.42627 12.4509C8.5413 12.4569 8.6622 12.4679 8.78227 12.4679C9.77891 12.4713 10.7764 12.4637 11.773 12.4798C12.2676 12.4875 12.632 12.7502 12.8427 13.1974C13.0543 13.6454 13.0098 14.0926 12.7176 14.4914C12.6085 14.6393 12.4565 14.7821 12.2928 14.8553C12.0745 14.953 12.0132 15.0763 12.0132 15.3118C12.0207 18.9778 12.0182 22.6446 12.019 26.3106C12.019 26.4144 12.0283 26.5172 12.035 26.6524H12.3927C16.9787 26.6524 21.5656 26.6524 26.1517 26.6524C27.6723 26.6524 28.7117 25.6653 28.8066 24.1376C28.8545 23.3639 29.4053 22.8444 30.145 22.8776C30.8352 22.9082 31.3297 23.4744 31.3238 24.226C31.3028 26.9321 29.0501 29.1962 26.3482 29.2013C22.0661 29.2098 17.784 29.2038 13.5018 29.2038C13.0081 29.2038 12.5153 29.2081 12.0224 29.2013C11.8688 29.1987 11.7856 29.2344 11.7218 29.3977C11.0073 31.2162 9.70167 32.2951 7.78395 32.6011C7.75624 32.6054 7.73105 32.6309 7.70503 32.6471H6.57152C6.5455 32.6309 6.52031 32.6037 6.49344 32.6003C4.36246 32.3656 2.22728 30.3864 2.27178 27.4329C2.33223 23.4591 2.28353 19.4837 2.29361 15.5091C2.29361 15.1783 2.28437 14.908 1.90989 14.8051C1.8444 14.7872 1.78983 14.7209 1.73693 14.6708C1.36581 14.3196 1.23903 13.7747 1.41535 13.2969C1.59923 12.797 2.03416 12.4824 2.61183 12.4747C3.58748 12.462 4.56397 12.4705 5.54046 12.4688C5.65045 12.4688 5.76128 12.4577 5.8889 12.4509C5.8889 12.2996 5.8889 12.1831 5.8889 12.0675C5.8889 9.75076 5.88135 7.43401 5.89142 5.11726C5.90066 2.97224 7.15423 1.12139 9.12064 0.351126C9.51275 0.196392 9.93676 0.115625 10.3473 0C15.8469 0 21.3473 0 26.8469 0ZM4.82089 15.0415C4.81334 15.1061 4.80494 15.1469 4.80494 15.1877C4.80494 19.3944 4.79403 23.6019 4.81166 27.8087C4.81838 29.35 6.35154 30.44 7.81754 29.9962C8.87127 29.6774 9.49596 28.7762 9.4968 27.5494C9.49932 23.5016 9.49764 19.4539 9.49764 15.4062V15.0415H4.82005H4.82089Z"
            fill="#008069" />
        <path
            d="M18.6054 8.99544C17.325 8.99544 16.0445 8.99714 14.7649 8.99544C13.9505 8.99374 13.3745 8.45472 13.3829 7.71166C13.3913 6.9822 13.9681 6.44744 14.7565 6.44659C17.3275 6.44489 19.8984 6.44489 22.4694 6.44659C23.2687 6.44659 23.8271 6.9737 23.8279 7.71846C23.8296 8.46577 23.2771 8.99289 22.4778 8.99544C21.1873 8.99884 19.8959 8.99629 18.6054 8.99629V8.99544Z"
            fill="#008069" />
        <path
            d="M18.6288 20.1462C19.2677 20.1462 19.9075 20.1419 20.5465 20.147C21.2896 20.153 21.8454 20.692 21.8555 21.4062C21.8655 22.1229 21.2929 22.6908 20.5389 22.695C19.2501 22.701 17.9613 22.7018 16.6724 22.695C15.9109 22.6908 15.366 22.1373 15.3744 21.3994C15.3819 20.6793 15.9268 20.1538 16.6808 20.1479C17.3307 20.1428 17.9806 20.147 18.6296 20.147L18.6288 20.1462Z"
            fill="#008069" />
        <path
            d="M18.6304 16.3407C17.9285 16.3407 17.2257 16.3602 16.5254 16.3347C15.9746 16.3152 15.528 15.9079 15.402 15.3817C15.2769 14.8605 15.4751 14.3036 15.9335 14.0256C16.1317 13.9058 16.381 13.8165 16.6086 13.8131C17.9385 13.7935 19.2694 13.7918 20.6002 13.8071C21.2702 13.8148 21.7496 14.2722 21.842 14.9294C21.9243 15.5092 21.5532 16.106 20.9788 16.282C20.8025 16.3364 20.6077 16.3466 20.4213 16.3492C19.8244 16.3568 19.2274 16.3526 18.6296 16.3526C18.6296 16.3492 18.6296 16.3449 18.6296 16.3415L18.6304 16.3407Z"
            fill="#008069" />
    </g>
    <defs>
        <clipPath id="clip0_6614_8068">
            <rect width="30" height="32.6471" fill="white" transform="translate(1.33325)" />
        </clipPath>
    </defs>
</svg>
