<svg width="24" height="24" viewBox="0 0 24 24" fill="none" xmlns="http://www.w3.org/2000/svg">
    <path d="M15.667 15.0776C16.1747 14.5995 16.7757 14.229 17.4378 14C17.8043 14.4819 18.3679 14.7905 19 14.7905C19.6321 14.7905 20.1957 14.4819 20.5623 14C21.2243 14.229 21.8253 14.5995 22.333 15.0776C22.1203 15.6522 22.1483 16.3196 22.4641 16.8952C22.7801 17.4712 23.3157 17.8305 23.8953 17.9237C23.9639 18.2712 24 18.6311 24 19C24 19.3688 23.9639 19.7288 23.8953 20.0762C23.3157 20.1695 22.7801 20.5288 22.4641 21.1048C22.1483 21.6804 22.1203 22.3478 22.333 22.9224C21.8253 23.4005 21.2243 23.7711 20.5623 24C20.1957 23.5182 19.6321 23.2096 19 23.2096C18.3679 23.2096 17.8043 23.5182 17.4378 24C16.7757 23.7711 16.1747 23.4005 15.667 22.9224C15.8798 22.3478 15.8517 21.6804 15.5359 21.1048C15.2199 20.5288 14.6843 20.1695 14.1047 20.0762C14.0361 19.7288 14 19.3688 14 19C14 18.6311 14.0361 18.2712 14.1047 17.9237C14.6843 17.8305 15.2199 17.4712 15.5359 16.8952C15.8517 16.3196 15.8798 15.6522 15.667 15.0776ZM19.75 20.3671C20.4674 19.9312 20.7132 18.9658 20.299 18.2107C19.8848 17.4557 18.9675 17.197 18.25 17.6329C17.5326 18.0688 17.2867 19.0343 17.701 19.7893C18.1152 20.5443 19.0326 20.803 19.75 20.3671Z" fill="black"/>
    <path d="M6 7C6 3.68629 8.68629 1 12 1C15.3137 1 18 3.68629 18 7V8H19.5C20.3284 8 21 8.67157 21 9.5V13H19V10H5V20H13V22H4.5C3.67157 22 3 21.3284 3 20.5V9.5C3 8.67157 3.67157 8 4.5 8H6V7ZM16 7C16 4.79086 14.2091 3 12 3C9.79086 3 8 4.79086 8 7V8H16V7Z" fill="black"/>
</svg>
