<svg width="24" height="24" viewBox="0 0 24 24" fill="none" xmlns="http://www.w3.org/2000/svg">
    <path d="M14.1773 4.72727C14.1206 5.00632 14.0909 5.29514 14.0909 5.59091C14.0909 5.88668 14.1206 6.1755 14.1773 6.45455H4.16899L10.6898 12.2081L15.0494 8.30394C15.4177 8.75949 15.8768 9.13862 16.3992 9.41381L10.6984 14.5192L3.72727 8.36831V18.5455H17.5455V9.82271C17.8245 9.87935 18.1133 9.90909 18.4091 9.90909C18.7049 9.90909 18.9937 9.87935 19.2727 9.82271V19.4091C19.2727 19.8861 18.8861 20.2727 18.4091 20.2727H2.86364C2.38667 20.2727 2 19.8861 2 19.4091V5.59091C2 5.11394 2.38667 4.72727 2.86364 4.72727H14.1773ZM18.4091 3C19.84 3 21 4.15999 21 5.59091C21 7.02182 19.84 8.18182 18.4091 8.18182C16.9781 8.18182 15.8182 7.02182 15.8182 5.59091C15.8182 4.15999 16.9781 3 18.4091 3Z" fill="black"/>
</svg>
