<svg width="24" height="24" viewBox="0 0 24 24" fill="none" xmlns="http://www.w3.org/2000/svg">
<path d="M17.68 14.8778L16.5289 13.7267L17.68 12.5755C19.2694 10.9862 19.2694 8.40932 17.68 6.81996C16.0907 5.23059 13.5138 5.23059 11.9244 6.81996L10.7733 7.97107L9.62219 6.81996L10.7733 5.66883C12.9984 3.44372 16.606 3.44372 18.8312 5.66883C21.0563 7.89394 21.0563 11.5015 18.8312 13.7267L17.68 14.8778ZM15.3777 17.1801L14.2266 18.3312C12.0016 20.5562 8.39394 20.5562 6.16883 18.3312C3.94372 16.106 3.94372 12.4984 6.16883 10.2733L7.31995 9.12219L8.47107 10.2733L7.31995 11.4244C5.73059 13.0138 5.73059 15.5906 7.31995 17.1801C8.90931 18.7694 11.4862 18.7694 13.0755 17.1801L14.2266 16.0289L15.3777 17.1801ZM14.8022 8.54663L15.9534 9.69775L10.1978 15.4533L9.04663 14.3022L14.8022 8.54663Z" fill="black"/>
</svg>
