<svg width="24" height="24" viewBox="0 0 24 24" fill="none" xmlns="http://www.w3.org/2000/svg">
<path d="M16.4545 4.63636H18.9091C19.361 4.63636 19.7273 5.00268 19.7273 5.45455V20.1818C19.7273 20.6337 19.361 21 18.9091 21H5.81818C5.36632 21 5 20.6337 5 20.1818V5.45455C5 5.00268 5.36632 4.63636 5.81818 4.63636H8.27273V3H9.90909V4.63636H14.8182V3H16.4545V4.63636ZM16.4545 6.27273V7.90909H14.8182V6.27273H9.90909V7.90909H8.27273V6.27273H6.63636V19.3636H18.0909V6.27273H16.4545ZM8.27273 9.54545H16.4545V11.1818H8.27273V9.54545ZM8.27273 12.8182H16.4545V14.4545H8.27273V12.8182Z" fill="black"/>
</svg>
