<svg width="101" height="94" viewBox="0 0 101 94" fill="none" xmlns="http://www.w3.org/2000/svg">
<ellipse opacity="0.1" cx="50.5" cy="79.1953" rx="50" ry="6" fill="#8C82AA"/>
<path fill-rule="evenodd" clip-rule="evenodd" d="M81.7427 1.64155C82.9392 0.0127948 85.2296 -0.337588 86.8584 0.858949C88.4871 2.05549 88.8375 4.34584 87.641 5.9746L83.184 12.0415C81.9875 13.6703 79.6971 14.0206 78.0684 12.8241C76.4396 11.6276 76.0892 9.33721 77.2858 7.70845L81.7427 1.64155ZM85.2137 3.09773C84.8214 2.80952 84.2697 2.89392 83.9815 3.28623L79.5246 9.35313C79.2363 9.74544 79.3207 10.2971 79.7131 10.5853C80.1054 10.8735 80.657 10.7891 80.9453 10.3968L85.4022 4.32993C85.6904 3.93761 85.606 3.38594 85.2137 3.09773ZM15.7514 37.5887C15.7514 19.7979 30.1737 5.37555 47.9645 5.37555C65.7554 5.37555 80.1777 19.7979 80.1777 37.5887C80.1777 55.3795 65.7554 69.8019 47.9645 69.8019C30.1737 69.8019 15.7514 55.3795 15.7514 37.5887ZM47.9645 2.59758C28.6395 2.59758 12.9734 18.2636 12.9734 37.5887C12.9734 56.9138 28.6395 72.5798 47.9645 72.5798C54.3174 72.5798 60.2749 70.8868 65.4103 67.9274L69.9521 72.4691C69.8223 74.3993 70.4951 76.3733 71.9705 77.8487L85.9848 91.863C88.6969 94.5752 93.0942 94.5752 95.8064 91.863L98.8282 88.8412C101.54 86.1291 101.54 81.7318 98.8282 79.0196L84.8139 65.0053C83.3382 63.5296 81.3635 62.8568 79.433 62.987L75.5563 59.1104C80.1928 53.1746 82.9557 45.7043 82.9557 37.5887C82.9557 18.2636 67.2896 2.59758 47.9645 2.59758ZM76.422 63.9047L73.7547 61.2374C71.9783 63.1736 69.9867 64.9092 67.8179 66.4062L70.8693 69.4577C71.1657 68.9464 71.5328 68.4648 71.9705 68.0271L74.9923 65.0053C75.4297 64.5679 75.911 64.201 76.422 63.9047ZM64.0243 33.3833C64.7105 33.0402 64.9886 32.2059 64.6455 31.5197C64.3025 30.8336 63.4681 30.5555 62.782 30.8986L51.884 36.3476C51.4134 36.5828 51.1162 37.0638 51.1162 37.5899C51.1162 38.116 51.4134 38.597 51.884 38.8323L62.782 44.2812C63.4681 44.6243 64.3025 44.3462 64.6455 43.6601C64.9886 42.974 64.7105 42.1396 64.0243 41.7966L55.611 37.5899L64.0243 33.3833ZM31.2822 31.5197C30.9391 32.2059 31.2172 33.0402 31.9034 33.3833L40.3167 37.5899L31.9034 41.7966C31.2172 42.1396 30.9391 42.974 31.2822 43.6601C31.6253 44.3462 32.4596 44.6243 33.1457 44.2812L44.0437 38.8323C44.5143 38.597 44.8115 38.116 44.8115 37.5899C44.8115 37.0638 44.5143 36.5828 44.0437 36.3476L33.1457 30.8986C32.4596 30.5555 31.6253 30.8336 31.2822 31.5197ZM24.8327 37.5883C24.8327 24.8132 35.189 14.4568 47.9642 14.4568C60.7393 14.4568 71.0957 24.8132 71.0957 37.5883C71.0957 50.3635 60.7393 60.7198 47.9642 60.7198C35.189 60.7198 24.8327 50.3635 24.8327 37.5883ZM47.9642 11.6789C33.6548 11.6789 22.0547 23.2789 22.0547 37.5883C22.0547 51.8977 33.6548 63.4978 47.9642 63.4978C62.2736 63.4978 73.8736 51.8977 73.8736 37.5883C73.8736 23.2789 62.2736 11.6789 47.9642 11.6789ZM97.1685 15.0946C96.5541 13.1692 94.4952 12.1064 92.5698 12.7208L85.3981 15.0093C83.4727 15.6237 82.4099 17.6826 83.0243 19.6079C83.6387 21.5333 85.6976 22.5961 87.623 21.9817L94.7947 19.6932C96.7201 19.0788 97.7829 17.0199 97.1685 15.0946ZM93.4143 15.3673C93.8781 15.2193 94.374 15.4753 94.522 15.939C94.67 16.4028 94.414 16.8987 93.9502 17.0467L86.7785 19.3352C86.3147 19.4832 85.8188 19.2272 85.6708 18.7635C85.5228 18.2997 85.7788 17.8038 86.2426 17.6558L93.4143 15.3673ZM3.49888 58.2603C1.55856 58.8257 0.443968 60.8571 1.00938 62.7974C1.57479 64.7377 3.6061 65.8523 5.54643 65.2869L12.7739 63.1808C14.7142 62.6154 15.8288 60.5841 15.2634 58.6438C14.6979 56.7034 12.6666 55.5888 10.7263 56.1543L3.49888 58.2603ZM3.67642 62.0202C3.54023 61.5528 3.8087 61.0636 4.27606 60.9274L11.5035 58.8213C11.9709 58.6851 12.4601 58.9536 12.5963 59.4209C12.7325 59.8883 12.464 60.3776 11.9967 60.5138L4.76925 62.6198C4.30189 62.756 3.81261 62.4876 3.67642 62.0202ZM10.8466 77.365C9.24865 76.1276 8.9564 73.8291 10.1938 72.2312L14.803 66.2791C16.0404 64.6812 18.3389 64.389 19.9368 65.6264C21.5348 66.8638 21.827 69.1623 20.5896 70.7602L15.9804 76.7123C14.743 78.3102 12.4445 78.6024 10.8466 77.365ZM12.3902 73.932C12.0922 74.3169 12.1625 74.8706 12.5474 75.1686C12.9323 75.4667 13.486 75.3963 13.784 75.0114L18.3932 69.0594C18.6913 68.6745 18.6209 68.1208 18.236 67.8228C17.8511 67.5247 17.2975 67.5951 16.9994 67.98L12.3902 73.932Z" fill="#3B1550"/>
</svg>
