<svg width="16" height="17" viewBox="0 0 16 17" fill="none" xmlns="http://www.w3.org/2000/svg">
<path d="M6.73685 0L12.8828 1.9206C13.2343 2.03046 13.4737 2.35605 13.4737 2.72437V4.21052H15.1579C15.623 4.21052 16 4.58755 16 5.05263V6.73684H5.05263V5.05263C5.05263 4.58755 5.42965 4.21052 5.89475 4.21052H11.7895V3.34315L6.73685 1.76337L1.68421 3.34315V9.57843C1.68421 10.6268 2.17194 11.6113 2.99655 12.2466L3.15508 12.3615L6.73685 14.8034L9.92169 12.6316H5.89475C5.42965 12.6316 5.05263 12.2546 5.05263 11.7895V8.42104H16V11.7895C16 12.2546 15.623 12.6316 15.1579 12.6316L12.4462 12.6325C12.1207 13.0617 11.7244 13.4415 11.2674 13.7531L6.73685 16.8421L2.2063 13.7531C0.825894 12.8119 0 11.2492 0 9.57843V2.72437C0 2.35605 0.239368 2.03046 0.59093 1.9206L6.73685 0Z" fill="#3B1550"/>
</svg>
