<svg width="42" height="42" viewBox="0 0 42 42" fill="none" xmlns="http://www.w3.org/2000/svg">
<path d="M27 5.3V12.9H33.6667V36.7H8.33333V5.3H27ZM7.66417 3C6.74582 3 6 3.73268 6 4.63647V37.3635C6 38.2488 6.74127 39 7.65567 39H34.3443C35.2585 39 36 38.2557 36 37.3376L35.9995 11.25L27.6667 3H7.66417Z" fill="#3B1550"/>
<path d="M17.8705 15.5835L26.002 20.9504C26.3083 21.1525 26.3912 21.5624 26.1868 21.8656C26.138 21.9381 26.0752 22.0003 26.002 22.0486L17.8705 27.4154C17.5642 27.6177 17.1502 27.5357 16.946 27.2324C16.873 27.124 16.834 26.9966 16.834 26.8663V16.1327C16.834 15.7681 17.1325 15.4727 17.5007 15.4727C17.6323 15.4727 17.761 15.5112 17.8705 15.5835Z" fill="#3B1550"/>
</svg>
