<svg width="24" height="24" viewBox="0 0 24 24" fill="none" xmlns="http://www.w3.org/2000/svg">
    <path d="M16.5455 17.4734L20.3568 21.2847L21.6425 19.9991L3.64335 2L2.35771 3.28565L3.44163 4.36956H2.90909C2.40702 4.36956 2 4.77658 2 5.27866V18.0059C2 18.508 2.40702 18.915 2.90909 18.915H15.6364C16.1385 18.915 16.5455 18.508 16.5455 18.0059V17.4734ZM14.7273 15.6552V17.0968H3.81818V6.18775H5.25981L14.7273 15.6552ZM22 17.1329C22 17.3256 21.8864 17.4765 21.7348 17.5462L20.1818 15.9932V8.77076L16.5455 11.3162V12.3568L14.7273 10.5386V6.18775H10.3764L8.5582 4.36956H15.6364C16.1385 4.36956 16.5455 4.77658 16.5455 5.27866V9.09684L21.2848 5.77931C21.5861 5.56843 22 5.78395 22 6.15168V17.1329Z" fill="white"/>
</svg>
