<svg width="24" height="24" viewBox="0 0 24 24" fill="none" xmlns="http://www.w3.org/2000/svg">
<path d="M12 4C16.4182 4 20 7.58172 20 12C20 16.4182 16.4182 20 12 20C7.58172 20 4 16.4182 4 12H5.6C5.6 15.5346 8.46538 18.4 12 18.4C15.5346 18.4 18.4 15.5346 18.4 12C18.4 8.46538 15.5346 5.6 12 5.6C9.80018 5.6 7.85958 6.70987 6.70761 8.40019L8.8 8.4V10H4V5.2H5.6L5.59991 7.19934C7.05947 5.2566 9.38298 4 12 4ZM12.8 8L12.7998 11.668L15.3941 14.2627L14.2627 15.3941L11.1998 12.3304L11.2 8H12.8Z" fill="#3B1550"/>
</svg>
