<svg width="24" height="24" viewBox="0 0 24 24" fill="none" xmlns="http://www.w3.org/2000/svg">
<path d="M15.2727 5C15.7246 5 16.0909 5.36632 16.0909 5.81818V9.25455L20.3563 6.26876C20.5414 6.1392 20.7965 6.18421 20.926 6.36931C20.9741 6.43807 21 6.51997 21 6.60391V16.487C21 16.7129 20.8168 16.8961 20.5909 16.8961C20.507 16.8961 20.4251 16.8703 20.3563 16.8222L16.0909 13.8364V17.2727C16.0909 17.7246 15.7246 18.0909 15.2727 18.0909H3.81818C3.36632 18.0909 3 17.7246 3 17.2727V5.81818C3 5.36632 3.36632 5 3.81818 5H15.2727ZM14.4545 6.63636H4.63636V16.4545H14.4545V6.63636ZM8.23636 8.95073C8.2986 8.95073 8.35956 8.96848 8.41207 9.00189L11.9752 11.2693C12.1277 11.3664 12.1726 11.5687 12.0756 11.7212C12.0499 11.7615 12.0156 11.7958 11.9752 11.8216L8.41207 14.089C8.25958 14.1861 8.0573 14.1411 7.96026 13.9886C7.92684 13.9361 7.90909 13.8751 7.90909 13.8129V9.278C7.90909 9.09726 8.05562 8.95073 8.23636 8.95073ZM19.3636 8.96107L16.0909 11.2517V11.8392L19.3636 14.1298V8.96107Z" fill="#3B1550"/>
</svg>
