<svg width="24" height="24" viewBox="0 0 24 24" fill="none" xmlns="http://www.w3.org/2000/svg">
    <path d="M16.5455 9.72727L21.2848 6.40974C21.4905 6.26577 21.7739 6.31579 21.9178 6.52145C21.9713 6.59785 22 6.68885 22 6.78212V17.7634C22 18.0144 21.7965 18.2179 21.5455 18.2179C21.4522 18.2179 21.3612 18.1892 21.2848 18.1357L16.5455 14.8182V18.6364C16.5455 19.1385 16.1385 19.5455 15.6364 19.5455H2.90909C2.40702 19.5455 2 19.1385 2 18.6364V5.90909C2 5.40702 2.40702 5 2.90909 5H15.6364C16.1385 5 16.5455 5.40702 16.5455 5.90909V9.72727ZM16.5455 12.5988L20.1818 15.1443V9.40119L16.5455 11.9466V12.5988ZM3.81818 6.81818V17.7273H14.7273V6.81818H3.81818Z" fill="black"/>
</svg>
