<svg width="42" height="42" viewBox="0 0 42 42" fill="none" xmlns="http://www.w3.org/2000/svg">
<path d="M3.5 4.78524C3.5 4.04193 4.05431 3.5 4.66417 3.5H23.7929L32.4995 12.2071L32.5 37.1865C32.5 37.9557 31.9405 38.5 31.3443 38.5H4.65567C4.05574 38.5 3.5 37.9443 3.5 37.2148V4.78524Z" fill="white" stroke="#333333"/>
<path d="M23 13V3L33 13H23Z" fill="#333333"/>
<rect width="25" height="12" transform="translate(14 20)" fill="#333333"/>
<path d="M19.0249 22.1797L20.4966 24.9082L21.9683 22.1797H23.8105L21.5386 26.0576L23.8696 30H22.0112L20.4966 27.2178L18.9819 30H17.1128L19.4492 26.0576L17.1719 22.1797H19.0249Z" fill="white"/>
<path d="M29.708 28.7432V30H25.771V28.7432H29.708ZM26.292 22.1797V30H24.6807V22.1797H26.292Z" fill="white"/>
<path d="M34.7031 27.9536C34.7031 27.814 34.6816 27.6886 34.6387 27.5776C34.5993 27.4631 34.5241 27.3592 34.4131 27.2661C34.3021 27.1694 34.1463 27.0745 33.9458 26.9814C33.7453 26.8883 33.4857 26.7917 33.167 26.6914C32.8125 26.5768 32.4759 26.4479 32.1572 26.3047C31.8421 26.1615 31.5628 25.995 31.3193 25.8052C31.0794 25.6118 30.8896 25.388 30.75 25.1338C30.6139 24.8796 30.5459 24.5841 30.5459 24.2476C30.5459 23.9217 30.6175 23.6263 30.7607 23.3613C30.904 23.0928 31.1045 22.8636 31.3623 22.6738C31.6201 22.4805 31.9245 22.3319 32.2754 22.228C32.6299 22.1242 33.0184 22.0723 33.4409 22.0723C34.0174 22.0723 34.5205 22.1761 34.9502 22.3838C35.3799 22.5915 35.7129 22.8761 35.9492 23.2378C36.1891 23.5994 36.3091 24.013 36.3091 24.4785H34.7085C34.7085 24.2493 34.6602 24.0488 34.5635 23.877C34.4704 23.7015 34.3271 23.5636 34.1338 23.4634C33.944 23.3631 33.7041 23.313 33.4141 23.313C33.1348 23.313 32.902 23.356 32.7158 23.4419C32.5296 23.5243 32.39 23.637 32.2969 23.7803C32.2038 23.9199 32.1572 24.0775 32.1572 24.2529C32.1572 24.3854 32.1895 24.5054 32.2539 24.6128C32.3219 24.7202 32.4222 24.8205 32.5547 24.9136C32.6872 25.0067 32.8501 25.0944 33.0435 25.1768C33.2368 25.2591 33.4606 25.3397 33.7148 25.4185C34.141 25.5474 34.5151 25.6924 34.8374 25.8535C35.1632 26.0146 35.4354 26.1955 35.6538 26.396C35.8722 26.5965 36.0369 26.8239 36.1479 27.0781C36.259 27.3324 36.3145 27.6206 36.3145 27.9429C36.3145 28.283 36.2482 28.5874 36.1157 28.856C35.9832 29.1245 35.7917 29.3519 35.541 29.5381C35.2904 29.7243 34.9914 29.8657 34.644 29.9624C34.2967 30.0591 33.9082 30.1074 33.4785 30.1074C33.0918 30.1074 32.7104 30.0573 32.3345 29.957C31.9585 29.8532 31.6165 29.6974 31.3086 29.4897C31.0042 29.2821 30.7607 29.0171 30.5781 28.6948C30.3955 28.3726 30.3042 27.9912 30.3042 27.5508H31.9209C31.9209 27.7943 31.9585 28.0002 32.0337 28.1685C32.1089 28.3368 32.2145 28.4728 32.3506 28.5767C32.4902 28.6805 32.6549 28.7557 32.8447 28.8022C33.0381 28.8488 33.2493 28.8721 33.4785 28.8721C33.7578 28.8721 33.987 28.8327 34.166 28.7539C34.3486 28.6751 34.4829 28.5659 34.5688 28.4263C34.6584 28.2866 34.7031 28.1291 34.7031 27.9536Z" fill="white"/>
</svg>
