<svg width="42" height="42" viewBox="0 0 42 42" fill="none" xmlns="http://www.w3.org/2000/svg">
<path d="M3.5 4.78524C3.5 4.04193 4.05431 3.5 4.66417 3.5H23.7929L32.4995 12.2071L32.5 37.1865C32.5 37.9557 31.9405 38.5 31.3443 38.5H4.65567C4.05574 38.5 3.5 37.9443 3.5 37.2148V4.78524Z" fill="white" stroke="#333333"/>
<path d="M23 13V3L33 13H23Z" fill="#333333"/>
<rect width="25" height="12" transform="translate(14 20)" fill="#333333"/>
<path d="M19.0254 22.1797L20.4971 24.9082L21.9688 22.1797H23.811L21.5391 26.0576L23.8701 30H22.0117L20.4971 27.2178L18.9824 30H17.1133L19.4497 26.0576L17.1724 22.1797H19.0254Z" fill="white"/>
<path d="M29.7085 28.7432V30H25.7715V28.7432H29.7085ZM26.2925 22.1797V30H24.6812V22.1797H26.2925Z" fill="white"/>
<path d="M34.7036 27.9536C34.7036 27.814 34.6821 27.6886 34.6392 27.5776C34.5998 27.4631 34.5246 27.3592 34.4136 27.2661C34.3026 27.1694 34.1468 27.0745 33.9463 26.9814C33.7458 26.8883 33.4862 26.7917 33.1675 26.6914C32.813 26.5768 32.4764 26.4479 32.1577 26.3047C31.8426 26.1615 31.5633 25.995 31.3198 25.8052C31.0799 25.6118 30.8901 25.388 30.7505 25.1338C30.6144 24.8796 30.5464 24.5841 30.5464 24.2476C30.5464 23.9217 30.618 23.6263 30.7612 23.3613C30.9045 23.0928 31.105 22.8636 31.3628 22.6738C31.6206 22.4805 31.925 22.3319 32.2759 22.228C32.6304 22.1242 33.0189 22.0723 33.4414 22.0723C34.0179 22.0723 34.521 22.1761 34.9507 22.3838C35.3804 22.5915 35.7134 22.8761 35.9497 23.2378C36.1896 23.5994 36.3096 24.013 36.3096 24.4785H34.709C34.709 24.2493 34.6606 24.0488 34.564 23.877C34.4709 23.7015 34.3276 23.5636 34.1343 23.4634C33.9445 23.3631 33.7046 23.313 33.4146 23.313C33.1353 23.313 32.9025 23.356 32.7163 23.4419C32.5301 23.5243 32.3905 23.637 32.2974 23.7803C32.2043 23.9199 32.1577 24.0775 32.1577 24.2529C32.1577 24.3854 32.1899 24.5054 32.2544 24.6128C32.3224 24.7202 32.4227 24.8205 32.5552 24.9136C32.6877 25.0067 32.8506 25.0944 33.0439 25.1768C33.2373 25.2591 33.4611 25.3397 33.7153 25.4185C34.1414 25.5474 34.5156 25.6924 34.8379 25.8535C35.1637 26.0146 35.4359 26.1955 35.6543 26.396C35.8727 26.5965 36.0374 26.8239 36.1484 27.0781C36.2594 27.3324 36.3149 27.6206 36.3149 27.9429C36.3149 28.283 36.2487 28.5874 36.1162 28.856C35.9837 29.1245 35.7922 29.3519 35.5415 29.5381C35.2909 29.7243 34.9919 29.8657 34.6445 29.9624C34.2972 30.0591 33.9087 30.1074 33.479 30.1074C33.0923 30.1074 32.7109 30.0573 32.335 29.957C31.959 29.8532 31.617 29.6974 31.3091 29.4897C31.0047 29.2821 30.7612 29.0171 30.5786 28.6948C30.396 28.3726 30.3047 27.9912 30.3047 27.5508H31.9214C31.9214 27.7943 31.959 28.0002 32.0342 28.1685C32.1094 28.3368 32.215 28.4728 32.3511 28.5767C32.4907 28.6805 32.6554 28.7557 32.8452 28.8022C33.0386 28.8488 33.2498 28.8721 33.479 28.8721C33.7583 28.8721 33.9875 28.8327 34.1665 28.7539C34.3491 28.6751 34.4834 28.5659 34.5693 28.4263C34.6589 28.2866 34.7036 28.1291 34.7036 27.9536Z" fill="white"/>
</svg>
