<svg width="42" height="42" viewBox="0 0 42 42" fill="none" xmlns="http://www.w3.org/2000/svg">
<path d="M3.5 4.78524C3.5 4.04193 4.05431 3.5 4.66417 3.5H23.7929L32.4995 12.2071L32.5 37.1865C32.5 37.9557 31.9405 38.5 31.3443 38.5H4.65567C4.05574 38.5 3.5 37.9443 3.5 37.2148V4.78524Z" fill="white" stroke="#333333"/>
<path d="M23 13V3L33 13H23Z" fill="#333333"/>
<rect width="28" height="12" transform="translate(13 20)" fill="#333333"/>
<path d="M17.9121 22L19.3838 24.7285L20.8555 22H22.6978L20.4258 25.8779L22.7568 29.8203H20.8984L19.3838 27.0381L17.8691 29.8203H16L18.3364 25.8779L16.0591 22H17.9121Z" fill="white"/>
<path d="M24.3037 22H25.668L27.6768 27.7417L29.6855 22H31.0498L28.2246 29.8203H27.1289L24.3037 22ZM23.5679 22H24.9268L25.1738 27.5967V29.8203H23.5679V22ZM30.4268 22H31.791V29.8203H30.1797V27.5967L30.4268 22Z" fill="white"/>
<path d="M38.231 28.5635V29.8203H34.2939V28.5635H38.231ZM34.8149 22V29.8203H33.2036V22H34.8149Z" fill="white"/>
</svg>
