<svg width="24" height="24" viewBox="0 0 24 24" fill="none" xmlns="http://www.w3.org/2000/svg">
<g clip-path="url(#clip0_13285_30346)">
<path d="M15.5879 8.4136L21.7055 2.53125" stroke="#3B1550" stroke-width="1.88235" stroke-linecap="round" stroke-linejoin="round"/>
<path d="M15.5879 2.29688H21.7055V8.41452" stroke="#3B1550" stroke-width="1.88235" stroke-linecap="round" stroke-linejoin="round"/>
<path d="M6.43232 2.60938C6.87667 2.60938 7.28611 2.8504 7.50183 3.23892L8.99815 5.9343C9.19406 6.28722 9.20329 6.71408 9.02274 7.07513L7.58122 9.95822C7.58122 9.95822 7.99897 12.1059 9.74729 13.8543C11.4957 15.6026 13.6362 16.0131 13.6362 16.0131L16.5188 14.5718C16.8801 14.3912 17.3072 14.4005 17.6603 14.5968L20.3633 16.0996C20.7515 16.3154 20.9922 16.7246 20.9922 17.1687V20.2719C20.9922 21.8522 19.5243 22.9936 18.027 22.4883C14.9517 21.4507 10.178 19.4749 7.15234 16.4492C4.12661 13.4235 2.15089 8.64986 1.11323 5.57459C0.608001 4.07723 1.74938 2.60938 3.32964 2.60938H6.43232Z" stroke="#3B1550" stroke-width="2" stroke-linejoin="round"/>
</g>
<defs>
<clipPath id="clip0_13285_30346">
<rect width="24" height="24" fill="white"/>
</clipPath>
</defs>
</svg>
