<svg width="24" height="25" viewBox="0 0 24 25" fill="none" xmlns="http://www.w3.org/2000/svg">
    <path fill-rule="evenodd" clip-rule="evenodd" d="M21.5999 12.4673C21.5999 11.7582 21.5362 11.0764 21.418 10.4219H12V14.29H17.3817C17.1499 15.54 16.4454 16.5991 15.3863 17.3081V19.8172H18.6181C20.509 18.0763 21.5999 15.5127 21.5999 12.4673Z" fill="#4285F4"/>
    <path fill-rule="evenodd" clip-rule="evenodd" d="M11.9997 22.2405C14.6997 22.2405 16.9633 21.3451 18.6178 19.8178L15.386 17.3088C14.4906 17.9087 13.3451 18.2633 11.9997 18.2633C9.3952 18.2633 7.19069 16.5042 6.40433 14.1406H3.06348V16.7315C4.70891 19.9996 8.09067 22.2405 11.9997 22.2405Z" fill="#34A853"/>
    <path fill-rule="evenodd" clip-rule="evenodd" d="M6.40448 14.1408C6.20448 13.5408 6.09085 12.8999 6.09085 12.2408C6.09085 11.5818 6.20448 10.9409 6.40448 10.3409V7.75H3.06362C2.38636 9.09998 2 10.6272 2 12.2408C2 13.8545 2.38636 15.3817 3.06362 16.7317L6.40448 14.1408Z" fill="#FBBC05"/>
    <path fill-rule="evenodd" clip-rule="evenodd" d="M11.9997 6.2194C13.4679 6.2194 14.786 6.72394 15.8224 7.71483L18.6905 4.84669C16.9587 3.23308 14.6951 2.24219 11.9997 2.24219C8.09067 2.24219 4.70891 4.48306 3.06348 7.75119L6.40434 10.3421C7.19069 7.97846 9.3952 6.2194 11.9997 6.2194Z" fill="#EA4335"/>
</svg>
