<svg width="24" height="24" viewBox="0 0 24 24" fill="none" xmlns="http://www.w3.org/2000/svg">
    <path d="M5.69426 18.6C5.31084 18.6 5 18.2886 5 17.9046V6.69538C5 6.31133 5.31872 6 5.69426 6H18.3057C18.6892 6 19 6.31147 19 6.69538V17.9046C19 18.2886 18.6813 18.6 18.3057 18.6H5.69426ZM17.6 14.4V7.4H6.4V17.2L13.4 10.2L17.6 14.4ZM17.6 16.3799L13.4 12.1799L8.3799 17.2H17.6V16.3799ZM9.2 11.6C8.4268 11.6 7.8 10.9732 7.8 10.2C7.8 9.4268 8.4268 8.8 9.2 8.8C9.9732 8.8 10.6 9.4268 10.6 10.2C10.6 10.9732 9.9732 11.6 9.2 11.6Z" fill="#3B1550"/>
</svg>
