<svg width="24" height="24" viewBox="0 0 24 24" fill="none" xmlns="http://www.w3.org/2000/svg">
<path d="M19.0007 15.0323C18.954 15.2587 18.9212 15.4888 18.8585 15.7105C18.4206 17.2581 16.9284 18.3103 15.3064 18.2217C13.6829 18.1327 12.3143 16.9128 12.0525 15.3204C11.7612 13.5489 12.8039 11.8886 14.5302 11.3749C14.5604 11.3657 14.5896 11.3537 14.6184 11.3431V8.90738C14.3246 9.11993 14.0464 9.32117 13.7573 9.53008C13.4142 9.06014 13.0744 8.59457 12.7266 8.11806C13.653 7.44468 14.5717 6.77677 15.5011 6.10156C16.4209 6.76984 17.3404 7.43775 18.2748 8.11696C17.9299 8.58983 17.589 9.05722 17.2445 9.52971C16.955 9.32008 16.6772 9.11883 16.383 8.90592V11.3435C16.4967 11.3818 16.6152 11.4142 16.7279 11.4605C18.02 11.9914 18.7739 12.9436 18.9752 14.3272C18.9803 14.3626 18.9916 14.3969 18.9999 14.4319V15.0323H19.0007ZM13.7507 14.7239C13.7482 15.6868 14.5284 16.4746 15.489 16.4786C16.4541 16.483 17.2445 15.7053 17.2503 14.7465C17.2562 13.7771 16.473 12.987 15.5051 12.9852C14.54 12.9838 13.7536 13.7632 13.7507 14.7235V14.7239Z" fill="black"/>
<path d="M5 9.19305C5.04047 8.98852 5.06818 8.78071 5.12286 8.58055C5.55927 6.99025 7.00519 5.94063 8.66659 6.0026C10.2532 6.06167 11.6197 7.24072 11.9361 8.82446C12.2858 10.5741 11.2329 12.316 9.50877 12.84C9.46575 12.8531 9.42309 12.8673 9.37898 12.8811V14.7314H10.5537V16.4756H9.37898V18.2193H7.63118V16.4854H6.45067V14.7369H7.6155V12.9067C7.32493 12.7761 7.02525 12.6733 6.75764 12.5162C5.75687 11.9274 5.17828 11.0506 5.02479 9.89778C5.02005 9.86242 5.00839 9.82815 5 9.79351C5 9.59336 5 9.3932 5 9.19305ZM10.25 9.48836C10.2481 8.52769 9.46247 7.74603 8.49888 7.74639C7.53493 7.74676 6.75108 8.52878 6.75035 9.49055C6.74962 10.4578 7.53821 11.2427 8.50836 11.2398C9.47013 11.2369 10.2518 10.4509 10.2503 9.48836H10.25Z" fill="black"/>
</svg>
