<svg width="24" height="24" viewBox="0 0 24 24" fill="none" xmlns="http://www.w3.org/2000/svg">
<path d="M16.0526 11.3589L19 18.7273H17.5565L16.752 16.7177H14.0122L13.2091 18.7273H11.7662L14.7129 11.3589H16.0526ZM10.3589 6V7.33971H14.378V8.67943L13.0598 8.67983C12.5309 10.2644 11.6978 11.6976 10.6345 12.9002C11.1187 13.332 11.643 13.7151 12.1993 14.0436L11.6965 15.3013C10.9776 14.8944 10.3049 14.4083 9.68873 13.854C8.49265 14.9305 7.08268 15.75 5.53515 16.231L5.17588 14.9387C6.49947 14.5208 7.70986 13.8197 8.74478 12.9009C7.98942 12.0475 7.35035 11.0774 6.85377 10.0193L8.35386 10.0194C8.73122 10.715 9.17976 11.3611 9.68877 11.9463C10.5118 11.0005 11.1764 9.89599 11.6379 8.6801L5 8.67943V7.33971H9.01914V6H10.3589ZM15.3828 13.2915L14.5475 15.378H16.2167L15.3828 13.2915Z" fill="black"/>
</svg>
